<svg width="48" height="48" viewBox="0 0 48 48" fill="none" xmlns="http://www.w3.org/2000/svg">
<g clip-path="url(#clip0_11600_26908)">
<path d="M24 48C37.2548 48 48 37.2548 48 24C48 10.7452 37.2548 0 24 0C10.7452 0 0 10.7452 0 24C0 37.2548 10.7452 48 24 48Z" fill="#0052B4"/>
<path d="M24.0005 9.3916L24.7776 11.7831H27.292L25.2577 13.261L26.0348 15.6525L24.0005 14.1744L21.9662 15.6525L22.7433 13.261L20.709 11.7831H23.2235L24.0005 9.3916Z" fill="#FFDA44"/>
<path d="M13.6705 13.6706L15.9111 14.8121L17.6891 13.0342L17.2956 15.5176L19.5361 16.6592L17.0526 17.0526L16.6592 19.5362L15.5176 17.2957L13.0342 17.6891L14.8121 15.9112L13.6705 13.6706Z" fill="#FFDA44"/>
<path d="M9.3916 24.0005L11.7831 23.2235V20.709L13.2609 22.7434L15.6525 21.9663L14.1744 24.0005L15.6525 26.0348L13.2609 25.2578L11.7831 27.2921V24.7776L9.3916 24.0005Z" fill="#FFDA44"/>
<path d="M13.6705 34.3304L14.8121 32.0898L13.0342 30.3118L15.5177 30.7054L16.6591 28.4648L17.0526 30.9484L19.536 31.3418L17.2958 32.4833L17.6891 34.9668L15.9111 33.1888L13.6705 34.3304Z" fill="#FFDA44"/>
<path d="M24.0005 38.6093L23.2234 36.2179H20.709L22.7434 34.7399L21.9662 32.3486L24.0005 33.8265L26.0348 32.3486L25.2577 34.7399L27.292 36.2179H24.7775L24.0005 38.6093Z" fill="#FFDA44"/>
<path d="M34.3303 34.3304L32.0898 33.1889L30.3117 34.9669L30.7052 32.4833L28.4648 31.3418L30.9483 30.9484L31.3417 28.4648L32.4832 30.7054L34.9666 30.3118L33.1886 32.09L34.3303 34.3304Z" fill="#FFDA44"/>
<path d="M38.6093 24.0005L36.2179 24.7776V27.2921L34.7399 25.2577L32.3486 26.0348L33.8266 24.0005L32.3486 21.9663L34.74 22.7434L36.2179 20.709V23.2235L38.6093 24.0005Z" fill="#FFDA44"/>
<path d="M34.3303 13.6705L33.1887 15.9111L34.9667 17.6891L32.4831 17.2955L31.3417 19.536L30.9483 17.0525L28.4648 16.659L30.7052 15.5175L30.3117 13.0342L32.0899 14.8121L34.3303 13.6705Z" fill="#FFDA44"/>
</g>
<defs>
<clipPath id="clip0_11600_26908">
<rect width="48" height="48" fill="white"/>
</clipPath>
</defs>
</svg>
