<svg width="34" height="34" viewBox="0 0 34 34" fill="none" xmlns="http://www.w3.org/2000/svg">
<circle cx="17" cy="17" r="17" fill="white"/>
<path d="M10.139 13.7612C10.9803 13.568 11.0185 13.3748 11.0185 10.284V7H14.8424V9.70448C14.8424 12.0226 14.9571 12.409 15.5307 12.409C15.8749 12.409 16.5631 12.4862 17.0603 12.6021C17.8633 12.7953 17.9015 12.718 17.9015 7H21.7254V9.89766C21.7254 11.4817 21.8783 12.7953 22.0313 12.7953C22.1843 12.7953 22.4902 12.6021 22.7196 12.409C22.949 12.1256 23.4206 12.512 24.1344 13.568C24.708 14.418 25.0904 15.2293 25.0139 15.3839C24.9374 15.5771 24.1727 16.0407 21.6871 17.2384L21.7254 22.0678H17.9015V19.3633C17.9015 16.8907 17.825 16.6589 17.0603 16.4657C16.5631 16.3498 15.8749 16.2725 15.5307 16.2725C14.9189 16.2725 14.8424 16.7748 14.8424 26.3177L11.2097 26.1245L11.1332 21.9519C11.0568 18.8611 10.9038 17.8566 10.5597 17.9338C10.292 18.0111 9.56545 17.3929 8.91539 16.5816C7.76823 15.1134 7.76823 15.0748 8.533 14.5339C8.95363 14.2248 9.68017 13.8771 10.139 13.7612Z" fill="#071336"/>
</svg>
