<svg width="185" height="37" viewBox="0 0 185 37" fill="none" xmlns="http://www.w3.org/2000/svg">
<path fill-rule="evenodd" clip-rule="evenodd" d="M17.9722 0C19.54 0 21.7961 0.270448 22.9433 0.618167C24.0904 0.965886 26.0789 1.77723 27.3025 2.43403C28.5261 3.12947 30.4381 4.63625 31.5088 5.79531C32.5795 6.95438 33.9561 8.88615 34.5296 10.0452C35.1032 11.2043 35.8298 13.561 36.1739 15.261C36.7092 17.8496 36.7475 18.8155 36.3651 21.0563C36.1357 22.5245 35.3326 24.9971 34.6443 26.4653C33.956 27.9334 32.7706 29.8652 32.0441 30.7152C31.3176 31.5651 29.7115 32.956 28.4497 33.7674C27.226 34.6173 25.2376 35.6219 24.0904 36.0082C22.9433 36.3946 20.8784 36.8196 19.5018 36.9355C17.8193 37.09 16.1368 36.9741 14.3395 36.5105C12.8865 36.1628 10.7069 35.3901 9.5597 34.7719C8.41253 34.1537 6.65355 32.8401 5.6211 31.8742C4.62689 30.9083 3.28854 29.3243 2.67672 28.2811C2.02666 27.2766 1.14716 25.3448 0.726537 23.954C0.267672 22.3699 0 20.3609 0 18.545C0 16.961 0.229433 14.7587 0.535343 13.7156C0.803015 12.6724 1.45307 10.8952 1.98842 9.85203C2.52376 8.80888 3.67092 7.14755 4.47394 6.18167C5.31519 5.21578 6.92122 3.82491 8.06839 3.09083C9.17731 2.35676 11.2422 1.35224 12.6188 0.888615C14.3013 0.309083 16.0221 0 17.9722 0V0ZM109.669 9.2725C110.166 9.2725 110.74 9.65886 111.084 10.2384C111.581 11.0884 111.581 11.3202 111.084 12.1702C110.701 12.827 110.166 13.136 109.439 13.136C108.866 13.136 108.178 12.9429 107.91 12.6724C107.642 12.402 107.413 11.7065 107.375 11.127C107.336 10.4316 107.566 9.92931 108.063 9.69749C108.445 9.46568 109.172 9.2725 109.631 9.2725H109.669ZM171.348 10.4316H174.79V13.4451C174.751 16.3041 174.79 16.3814 175.44 15.7633C175.822 15.3769 176.778 14.9133 177.543 14.6815C178.499 14.4496 179.493 14.411 180.411 14.6815C181.214 14.8746 182.399 15.6087 183.087 16.3041C183.776 17.0382 184.502 18.3518 184.732 19.3177C185.114 20.67 185.076 21.5199 184.693 23.1813C184.387 24.4949 183.776 25.6926 183.126 26.388C182.552 26.9675 181.405 27.6243 180.602 27.8561C179.837 28.088 178.652 28.2039 178.04 28.0493C177.39 27.9334 176.434 27.5084 175.822 27.0448C174.79 26.2721 174.79 26.2721 174.79 27.0448C174.79 27.7016 174.522 27.8175 171.348 27.8175V10.4316ZM175.248 19.5495C174.904 20.245 174.828 21.2495 174.942 22.0995C175.095 23.0782 175.516 23.8252 176.204 24.3403C176.816 24.8039 177.581 25.1517 177.925 25.113C178.307 25.113 179.149 24.8426 179.761 24.5335C180.564 24.1085 181.022 23.529 181.252 22.4858C181.443 21.7131 181.52 20.7859 181.405 20.4768C181.328 20.1677 181.022 19.5109 180.793 19.0086C180.525 18.545 179.799 17.9655 179.187 17.7723C178.575 17.5405 177.963 17.3859 177.849 17.3859C177.734 17.4246 177.237 17.6564 176.701 17.9268C176.166 18.1973 175.516 18.9314 175.248 19.5495ZM50.9723 11.2043C52.196 11.2043 53.7637 11.4361 54.4138 11.7065C55.1021 12.0156 56.3257 12.9815 57.0905 13.8315C57.8935 14.7201 58.5436 15.7246 58.5436 16.0337C58.5436 16.4587 58.0847 16.6132 56.8228 16.6132C55.408 16.6132 54.8727 16.3814 53.9549 15.4542C52.999 14.4883 52.5019 14.2951 50.9723 14.2951C49.9781 14.2951 48.7927 14.5656 48.2956 14.8746C47.8367 15.1837 47.1867 15.9564 46.8808 16.6132C46.5748 17.27 46.3072 18.7382 46.3072 19.8972C46.3072 21.5972 46.4984 22.254 47.2631 23.1813C47.7985 23.8381 48.7927 24.4949 49.4428 24.688C50.2075 24.9199 51.24 24.9198 52.043 24.7267C52.7695 24.5335 53.802 23.9153 54.3373 23.3744C55.0639 22.6017 55.6757 22.4085 56.8993 22.4085C57.97 22.4085 58.5436 22.5631 58.5436 22.9108C58.5436 23.1426 58.1994 23.8767 57.8171 24.5335C57.4347 25.1903 56.5169 26.0789 55.8286 26.5425C55.1021 26.9675 53.7637 27.5471 52.8078 27.8175C51.5077 28.1652 50.5899 28.1266 48.9839 27.7789C47.4161 27.4312 46.4601 26.9289 45.2365 25.7312C44.0129 24.5721 43.4393 23.6062 42.9804 22.0222C42.6363 20.7472 42.4833 19.3177 42.6363 18.4291C42.751 17.6564 43.2098 16.3428 43.5922 15.5701C43.9746 14.7587 44.7394 13.7156 45.2365 13.252C45.6954 12.7883 46.7278 12.1315 47.4543 11.8224C48.1809 11.5134 49.7869 11.2429 50.9723 11.2043ZM142.707 11.1656L145.919 11.3975L146.11 18.1587H152.993V11.2043L156.244 11.3975L156.435 27.8175H152.993V20.8631H146.11V27.8175H142.669L142.707 11.1656ZM99.8415 11.5906H103.283V14.6815H104.813C106.304 14.6815 106.342 14.7201 106.342 16.0337C106.342 17.3473 106.304 17.3859 103.283 17.3859V20.7859C103.283 22.9881 103.436 24.3017 103.742 24.6494C104.01 24.9198 104.698 25.113 105.271 25.113C106.227 25.113 106.342 25.2676 106.342 27.8175H104.239C102.556 27.8175 101.906 27.6243 101.065 26.8903C100.071 26.0016 100.033 25.8085 99.918 21.6745C99.8415 17.695 99.765 17.3859 99.0767 17.3859C98.4649 17.3859 98.3119 17.1155 98.3119 16.0337C98.3119 14.9519 98.4649 14.6815 99.0767 14.6815C99.6885 14.6815 99.8415 14.411 99.8415 13.136V11.5906ZM67.415 14.6042C67.6062 14.6815 67.7591 15.4928 67.7591 16.4587C67.7209 18.12 67.6827 18.1587 66.459 18.1587C65.6943 18.1587 64.9295 18.4291 64.4706 18.97C63.8205 19.6654 63.6676 20.3995 63.5146 27.8175H60.0731V14.6815H61.7939C63.0558 14.6815 63.5146 14.836 63.5146 15.261C63.5146 15.5701 63.6294 15.8405 63.7823 15.8405C63.9353 15.8405 64.4324 15.6087 64.853 15.2996C65.2736 15.0292 65.9237 14.7201 66.3443 14.6042C66.7267 14.5269 67.2238 14.5269 67.415 14.6042ZM75.9422 14.5269C76.7835 14.6428 77.9689 15.0292 78.619 15.4155C79.2308 15.7633 80.1485 16.6905 80.6456 17.4246C81.2192 18.3518 81.4869 19.3177 81.4869 22.4085H76.8982C73.0743 22.4085 72.3096 22.5245 72.3096 22.9881C72.3096 23.2972 72.6537 23.9153 73.0743 24.3403C73.495 24.8039 74.3362 25.113 75.0628 25.113C75.8275 25.1517 76.5923 24.8426 77.0894 24.3403C77.6248 23.7994 78.313 23.5676 79.4602 23.5676C80.7603 23.5676 81.1045 23.7222 81.0662 24.263C81.0662 24.6108 80.4162 25.538 79.6514 26.3107C78.619 27.3152 77.7395 27.8175 76.5158 28.0107C75.4069 28.2039 74.1833 28.088 73.1126 27.7789C72.1184 27.4698 70.9712 26.6971 70.3211 26.0016C69.7476 25.3062 69.0593 23.9926 68.8298 23.104C68.6004 22.1767 68.5239 20.8245 68.6769 20.0904C68.8298 19.3563 69.174 18.3132 69.4417 17.7723C69.7093 17.2314 70.2447 16.4973 70.6271 16.1496C71.0094 15.7633 72.0419 15.2224 72.8831 14.8746C73.8009 14.5269 74.9863 14.3724 75.9422 14.5269ZM72.3096 19.5109C72.3096 19.9745 72.8831 20.0904 75.1775 20.0904C77.4718 20.0904 78.0454 19.9745 78.0454 19.5109C78.0454 19.2018 77.7012 18.5836 77.2806 18.1587C76.7835 17.695 75.9805 17.3859 75.1775 17.3859C74.3362 17.3859 73.5332 17.695 73.0743 18.1587C72.6537 18.5836 72.3096 19.2018 72.3096 19.5109ZM89.8994 14.5269C90.6259 14.6428 91.6966 15.0678 92.2702 15.4928C93.3409 16.2269 93.3409 16.2269 93.3409 15.4542C93.3409 14.7974 93.5703 14.6815 96.7824 14.6815V27.8175H95.0616C93.5703 27.8175 93.3409 27.7016 93.3409 27.0448C93.3409 26.2721 93.3409 26.2721 92.2702 27.0834C91.6966 27.5084 90.7024 27.9334 90.0906 28.088C89.4405 28.2039 88.3316 28.088 87.6051 27.8948C86.8785 27.663 85.8079 26.9675 85.2725 26.388C84.6989 25.8085 84.0106 24.8812 83.743 24.3403C83.4753 23.7994 83.2458 22.4085 83.2458 21.2495C83.2841 20.0904 83.5518 18.6223 83.8577 17.9655C84.2018 17.3473 84.8519 16.4201 85.349 15.9564C85.8461 15.4542 86.7638 14.9133 87.4139 14.7201C88.0257 14.5269 89.1729 14.411 89.8994 14.5269ZM87.6816 18.6995C87.0315 19.3177 86.8021 19.9359 86.8403 21.2495C86.8403 22.2154 87.0697 23.2585 87.3374 23.6062C87.5668 23.954 88.1787 24.4176 88.6375 24.688C89.1346 24.9199 89.8612 25.113 90.32 25.113C90.7407 25.113 91.5819 24.6108 92.232 23.954C93.0732 23.0653 93.3409 22.4472 93.3409 21.2495C93.3409 20.2063 93.0732 19.395 92.4614 18.7768C92.0025 18.2359 91.1995 17.7337 90.6642 17.6178C90.1288 17.5018 89.4405 17.5405 89.1346 17.6564C88.8287 17.7723 88.1787 18.2359 87.6816 18.6995ZM133.683 14.5656C134.524 14.6815 135.709 15.0678 136.36 15.4155C136.971 15.8019 137.889 16.7678 138.348 17.6178C138.845 18.5064 139.227 19.7813 139.227 22.4085H134.448C131.809 22.4085 129.668 22.5631 129.63 22.7176C129.63 22.8722 129.974 23.4903 130.394 24.0699C131.006 24.8812 131.503 25.113 132.612 25.113C133.581 25.1388 134.32 24.8812 134.83 24.3403C135.365 23.7994 136.054 23.5676 137.201 23.5676C138.119 23.5676 138.845 23.7222 138.845 23.8767C138.845 24.0312 138.501 24.7267 138.08 25.4221C137.621 26.1948 136.589 26.9675 135.48 27.4698C134.103 28.1266 133.3 28.2425 131.962 28.0493C131.006 27.8948 129.706 27.4698 129.094 27.0834C128.444 26.6971 127.565 25.6153 127.068 24.688C126.609 23.7222 126.226 22.2926 126.226 21.3654C126.226 20.4381 126.456 19.1632 126.762 18.4677C127.029 17.7723 127.756 16.7291 128.368 16.1496C128.979 15.6087 130.088 14.9519 130.815 14.7587C131.541 14.5269 132.842 14.4496 133.683 14.5656ZM129.668 19.7041C129.668 19.9359 130.853 20.0904 132.727 20.0904C134.486 20.0904 135.786 19.9359 135.786 19.7041C135.786 19.5109 135.365 18.8927 134.83 18.3518C134.218 17.7337 133.415 17.3859 132.689 17.3859C131.962 17.3859 131.197 17.7337 130.624 18.3518C130.127 18.8541 129.668 19.4723 129.668 19.7041ZM107.872 14.6815H111.313V27.8175H107.872V14.6815ZM116.399 14.8746L117.89 19.5109C118.731 22.0608 119.534 23.9926 119.687 23.7608C119.879 23.5676 120.643 21.4427 122.785 14.6815H124.506C125.461 14.6815 126.226 14.836 126.226 14.9905C126.188 15.1451 125.538 17.0769 124.697 19.3177C123.881 21.5586 122.861 24.3918 121.638 27.8175H117.431L116.628 25.6153C116.169 24.379 115.175 21.5586 114.334 19.3177C113.531 17.0769 112.843 15.1451 112.881 14.9519C112.881 14.7974 113.684 14.6815 116.399 14.8746ZM157.582 14.6815H161.024L160.985 18.8541C160.985 22.4085 161.1 23.1426 161.75 24.0699C162.285 24.7653 162.897 25.113 163.586 25.1517C164.159 25.1517 165.077 24.8039 165.612 24.379C166.53 23.6835 166.568 23.4903 166.606 14.6815H170.201V27.8175H168.48C167.448 27.8175 166.721 27.6243 166.645 27.3539C166.568 27.0448 166.071 27.0834 164.847 27.5857C163.853 27.972 162.63 28.1652 161.98 28.0493C161.329 27.9334 160.335 27.4698 159.723 26.9675C159.073 26.4653 158.347 25.538 158.079 24.8426C157.773 24.0312 157.582 21.9063 157.582 19.1245V14.6815Z" fill="#071336"/>
<path d="M11.7391 15.6473C12.5804 15.4541 12.6186 15.261 12.6186 12.1701V8.88611H16.4425V11.5906C16.4425 13.9087 16.5572 14.2951 17.1308 14.2951C17.4749 14.2951 18.1632 14.3723 18.6604 14.4882C19.4634 14.6814 19.5016 14.6042 19.5016 8.88611H23.3255V11.7838C23.3255 13.3678 23.4784 14.6814 23.6314 14.6814C23.7844 14.6814 24.0903 14.4882 24.3197 14.2951C24.5491 14.0117 25.0207 14.3981 25.7345 15.4541C26.3081 16.3041 26.6905 17.1155 26.614 17.27C26.5375 17.4632 25.7728 17.9268 23.2872 19.1245L23.3255 23.9539H19.5016V21.2494C19.5016 18.7768 19.4251 18.545 18.6604 18.3518C18.1632 18.2359 17.4749 18.1586 17.1308 18.1586C16.519 18.1586 16.4425 18.6609 16.4425 28.2038L12.8098 28.0106L12.7333 23.838C12.6569 20.7472 12.5039 19.7427 12.1598 19.8199C11.8921 19.8972 11.1655 19.279 10.5155 18.4677C9.36832 16.9995 9.36832 16.9609 10.1331 16.42C10.5537 16.1109 11.2803 15.7632 11.7391 15.6473Z" fill="white"/>
</svg>
