<svg width="25" height="24" viewBox="0 0 25 24" fill="none" xmlns="http://www.w3.org/2000/svg">
<g id="Read Email Monitor--Streamline-Ultimate" clip-path="url(#clip0_11515_26837)">
<path id="Vector" d="M15.5 22.5H9.5L10.25 18H14.75L15.5 22.5Z" stroke="#A3E0FF" stroke-width="1.5" stroke-linecap="round" stroke-linejoin="round"/>
<path id="Vector_2" d="M7.25 22.5H17.75" stroke="#A3E0FF" stroke-width="1.5" stroke-linecap="round" stroke-linejoin="round"/>
<path id="Vector_3" d="M4.25 1.5H20.75C20.75 1.5 23.75 1.5 23.75 4.5V15C23.75 15 23.75 18 20.75 18H4.25C4.25 18 1.25 18 1.25 15V4.5C1.25 4.5 1.25 1.5 4.25 1.5Z" stroke="#A3E0FF" stroke-width="1.5" stroke-linecap="round" stroke-linejoin="round"/>
<path id="Vector_4" d="M8.75 6H16.25C16.25 6 17.75 6 17.75 7.5V12C17.75 12 17.75 13.5 16.25 13.5H8.75C8.75 13.5 7.25 13.5 7.25 12V7.5C7.25 7.5 7.25 6 8.75 6Z" stroke="#A3E0FF" stroke-width="1.5" stroke-linecap="round" stroke-linejoin="round"/>
<path id="Vector_5" d="M7.62988 6.50293L12.4999 10.4999L17.3689 6.50393" stroke="#A3E0FF" stroke-width="1.5" stroke-linecap="round" stroke-linejoin="round"/>
</g>
<defs>
<clipPath id="clip0_11515_26837">
<rect width="24" height="24" fill="white" transform="translate(0.5)"/>
</clipPath>
</defs>
</svg>
