<svg xmlns="http://www.w3.org/2000/svg" width="25" height="25" viewBox="0 0 25 25" fill="none">
  <g clip-path="url(#clip0_11515_26847)">
    <path d="M15.5 11.7607H9.5C9.5 10.9651 9.81607 10.202 10.3787 9.63942C10.9413 9.07681 11.7044 8.76074 12.5 8.76074C13.2956 8.76074 14.0587 9.07681 14.6213 9.63942C15.1839 10.202 15.5 10.9651 15.5 11.7607Z" stroke="white" stroke-width="1.5" stroke-linecap="round" stroke-linejoin="round"/>
    <path d="M10.25 6.51074C10.25 7.10748 10.4871 7.67978 10.909 8.10173C11.331 8.52369 11.9033 8.76074 12.5 8.76074C13.0967 8.76074 13.669 8.52369 14.091 8.10173C14.5129 7.67978 14.75 7.10748 14.75 6.51074C14.75 5.91401 14.5129 5.34171 14.091 4.91975C13.669 4.4978 13.0967 4.26074 12.5 4.26074C11.9033 4.26074 11.331 4.4978 10.909 4.91975C10.4871 5.34171 10.25 5.91401 10.25 6.51074Z" stroke="white" stroke-width="1.5" stroke-linecap="round" stroke-linejoin="round"/>
    <path d="M7.25 1.26074H17.75C17.75 1.26074 20.75 1.26074 20.75 4.26074V8.76074C20.75 8.76074 20.75 11.7607 17.75 11.7607H7.25C7.25 11.7607 4.25 11.7607 4.25 8.76074V4.26074C4.25 4.26074 4.25 1.26074 7.25 1.26074Z" stroke="white" stroke-width="1.5" stroke-linecap="round" stroke-linejoin="round"/>
    <path d="M2.75 18.5107C2.75 19.1075 2.98705 19.6798 3.40901 20.1017C3.83097 20.5237 4.40326 20.7607 5 20.7607C5.59674 20.7607 6.16903 20.5237 6.59099 20.1017C7.01295 19.6798 7.25 19.1075 7.25 18.5107C7.25 17.914 7.01295 17.3417 6.59099 16.9198C6.16903 16.4978 5.59674 16.2607 5 16.2607C4.40326 16.2607 3.83097 16.4978 3.40901 16.9198C2.98705 17.3417 2.75 17.914 2.75 18.5107Z" stroke="white" stroke-width="1.5" stroke-linecap="round" stroke-linejoin="round"/>
    <path d="M8.75 23.7607C8.38751 23.0811 7.84712 22.5127 7.18661 22.1164C6.52609 21.7201 5.77029 21.5107 5 21.5107C4.22971 21.5107 3.47391 21.7201 2.81339 22.1164C2.15288 22.5127 1.61249 23.0811 1.25 23.7607" stroke="white" stroke-width="1.5" stroke-linecap="round" stroke-linejoin="round"/>
    <path d="M17.75 18.5107C17.75 19.1075 17.9871 19.6798 18.409 20.1017C18.831 20.5237 19.4033 20.7607 20 20.7607C20.5967 20.7607 21.169 20.5237 21.591 20.1017C22.0129 19.6798 22.25 19.1075 22.25 18.5107C22.25 17.914 22.0129 17.3417 21.591 16.9198C21.169 16.4978 20.5967 16.2607 20 16.2607C19.4033 16.2607 18.831 16.4978 18.409 16.9198C17.9871 17.3417 17.75 17.914 17.75 18.5107Z" stroke="white" stroke-width="1.5" stroke-linecap="round" stroke-linejoin="round"/>
    <path d="M23.75 23.7607C23.3875 23.0811 22.8471 22.5127 22.1866 22.1164C21.5261 21.7201 20.7703 21.5107 20 21.5107C19.2297 21.5107 18.4739 21.7201 17.8134 22.1164C17.1529 22.5127 16.6125 23.0811 16.25 23.7607" stroke="white" stroke-width="1.5" stroke-linecap="round" stroke-linejoin="round"/>
    <path d="M10.25 18.5107C10.25 19.1075 10.4871 19.6798 10.909 20.1017C11.331 20.5237 11.9033 20.7607 12.5 20.7607C13.0967 20.7607 13.669 20.5237 14.091 20.1017C14.5129 19.6798 14.75 19.1075 14.75 18.5107C14.75 17.914 14.5129 17.3417 14.091 16.9198C13.669 16.4978 13.0967 16.2607 12.5 16.2607C11.9033 16.2607 11.331 16.4978 10.909 16.9198C10.4871 17.3417 10.25 17.914 10.25 18.5107Z" stroke="white" stroke-width="1.5" stroke-linecap="round" stroke-linejoin="round"/>
    <path d="M16.25 23.7607C15.8875 23.0811 15.3471 22.5127 14.6866 22.1164C14.0261 21.7201 13.2703 21.5107 12.5 21.5107C11.7297 21.5107 10.9739 21.7201 10.3134 22.1164C9.65288 22.5127 9.11249 23.0811 8.75 23.7607" stroke="white" stroke-width="1.5" stroke-linecap="round" stroke-linejoin="round"/>
  </g>
  <defs>
    <clipPath id="clip0_11515_26847">
      <rect width="24" height="24" fill="white" transform="translate(0.5 0.5)"/>
    </clipPath>
  </defs>
</svg>