<svg width="25" height="24" viewBox="0 0 25 24" fill="none" xmlns="http://www.w3.org/2000/svg">
<g id="Phone Actions Voice Mail--Streamline-Ultimate" clip-path="url(#clip0_11515_26831)">
<path id="Vector" d="M1.47987 8.5294L2.81887 9.8684C3.16357 10.2132 3.57281 10.4866 4.02321 10.6732C4.47361 10.8598 4.95635 10.9558 5.44387 10.9558C5.93139 10.9558 6.41414 10.8598 6.86454 10.6732C7.31494 10.4866 7.72417 10.2132 8.06887 9.8684L10.0379 7.9004C10.2103 7.72805 10.347 7.52344 10.4403 7.29824C10.5336 7.07304 10.5816 6.83166 10.5816 6.5879C10.5816 6.34414 10.5336 6.10277 10.4403 5.87757C10.347 5.65237 10.2103 5.44775 10.0379 5.2754L6.20887 1.4464C6.02172 1.25742 5.79619 1.1108 5.54752 1.01643C5.29884 0.922073 5.03282 0.882171 4.76741 0.899423C4.50199 0.916675 4.24337 0.990679 4.00901 1.11644C3.77464 1.2422 3.56999 1.41678 3.40887 1.6284C-0.600126 7.0764 1.82687 12.8144 6.75687 17.7434C11.6869 22.6724 17.4239 25.1004 22.8719 21.0914C23.0835 20.9303 23.2581 20.7256 23.3838 20.4913C23.5096 20.2569 23.5836 19.9983 23.6009 19.7329C23.6181 19.4675 23.5782 19.2014 23.4838 18.9528C23.3895 18.7041 23.2429 18.4786 23.0539 18.2914L19.2259 14.4624C19.0535 14.29 18.8489 14.1533 18.6237 14.06C18.3985 13.9667 18.1571 13.9187 17.9134 13.9187C17.6696 13.9187 17.4282 13.9667 17.203 14.06C16.9778 14.1533 16.7732 14.29 16.6009 14.4624L14.6319 16.4314C14.2871 16.7761 14.0136 17.1853 13.8271 17.6357C13.6405 18.0861 13.5444 18.5689 13.5444 19.0564C13.5444 19.5439 13.6405 20.0267 13.8271 20.4771C14.0136 20.9275 14.2871 21.3367 14.6319 21.6814L15.9859 23.0354" stroke="#A3E0FF" stroke-width="1.5" stroke-linecap="round" stroke-linejoin="round"/>
</g>
<defs>
<clipPath id="clip0_11515_26831">
<rect width="24" height="24" fill="white" transform="translate(0.5)"/>
</clipPath>
</defs>
</svg>

