<svg width="118" height="31" viewBox="0 0 118 31" fill="none" xmlns="http://www.w3.org/2000/svg">
<path d="M4.61572 9.50397C2.36572 9.50397 0.57172 7.88397 0.57172 5.00397C0.57172 2.17197 2.30572 0.503974 4.61572 0.503974C6.73972 0.503974 7.96972 1.54797 8.40772 3.32397L6.93172 3.55797C6.60172 2.53797 5.85172 1.87797 4.70572 1.87197C2.96572 1.84797 2.10772 3.11397 2.10172 5.00397C2.09572 6.89397 2.96572 8.11797 4.70572 8.14197C6.00772 8.15997 6.85372 7.41597 7.07572 5.92797H5.55172V4.79397H8.61172C8.62372 4.91997 8.63572 5.24997 8.63572 5.29797C8.63572 7.74597 7.12372 9.50397 4.61572 9.50397ZM12.5028 9.50397C10.5528 9.50397 9.28078 8.08797 9.28078 6.08397C9.28078 4.04997 10.5888 2.66397 12.5028 2.66397C14.4588 2.66397 15.7368 4.07997 15.7368 6.08397C15.7368 8.10597 14.4408 9.50397 12.5028 9.50397ZM10.8108 6.08397C10.8108 7.34397 11.3868 8.14797 12.5028 8.14797C13.6488 8.14797 14.2068 7.30197 14.2068 6.08397C14.2068 4.82997 13.6368 4.01997 12.5028 4.01997C11.3388 4.01997 10.8108 4.85997 10.8108 6.08397ZM19.7208 9.50397C17.7708 9.50397 16.4988 8.08797 16.4988 6.08397C16.4988 4.04997 17.8068 2.66397 19.7208 2.66397C21.6768 2.66397 22.9548 4.07997 22.9548 6.08397C22.9548 8.10597 21.6588 9.50397 19.7208 9.50397ZM18.0288 6.08397C18.0288 7.34397 18.6048 8.14797 19.7208 8.14797C20.8668 8.14797 21.4248 7.30197 21.4248 6.08397C21.4248 4.82997 20.8548 4.01997 19.7208 4.01997C18.5568 4.01997 18.0288 4.85997 18.0288 6.08397ZM26.8007 12.384C25.7207 12.384 24.7307 11.856 24.2267 10.974L25.5587 10.314C25.7987 10.782 26.2967 11.01 26.8067 11.01C27.7067 11.01 28.3607 10.536 28.3427 9.61197V8.99397C27.9047 9.31797 27.3467 9.50397 26.6747 9.50397C24.8807 9.50397 23.7167 8.02797 23.7167 6.08397C23.7167 4.11597 24.8927 2.66397 26.7287 2.66397C27.4667 2.66397 28.0667 2.89797 28.5227 3.31197V2.84397H29.7887V9.63597C29.7887 9.97197 29.7647 10.26 29.6987 10.548C29.4047 11.802 28.2647 12.384 26.8007 12.384ZM25.2467 6.08397C25.2467 7.27197 25.7687 8.20797 26.8967 8.20797C28.0607 8.20797 28.5227 7.33797 28.5227 6.08397C28.5227 4.81797 28.0487 3.95997 26.9447 3.95997C25.7807 3.95997 25.2467 4.90797 25.2467 6.08397ZM31.3913 9.32397V0.683974H32.8373V9.32397H31.3913ZM37.3805 9.50397C35.4125 9.50397 34.0745 8.12397 34.0745 6.15597C34.0745 4.03197 35.3885 2.66397 37.2965 2.66397C39.3065 2.66397 40.4825 4.15197 40.3145 6.48597H35.6225C35.7365 7.55397 36.3125 8.14797 37.2965 8.14797C38.0045 8.14797 38.5325 7.82397 38.8145 7.22397L40.2425 7.65597C39.7445 8.83197 38.6285 9.50397 37.3805 9.50397ZM35.6585 5.39397H38.8505C38.7245 4.37997 38.2505 3.92997 37.3565 3.92997C36.3845 3.92997 35.8265 4.43397 35.6585 5.39397ZM43.6556 9.32397V0.683974H47.2256C47.3936 0.683974 47.6936 0.695974 47.9156 0.731974C49.4156 0.965975 50.1176 2.06997 50.1176 3.49797C50.1176 4.66197 49.6436 5.60997 48.6596 6.04797L50.2556 9.32397H48.6176L47.1536 6.30597H45.1016V9.32397H43.6556ZM45.1016 4.95597H47.1656C47.3276 4.95597 47.5436 4.94397 47.7116 4.89597C48.4316 4.71597 48.6596 4.04997 48.6596 3.49797C48.6596 2.94597 48.4316 2.27997 47.7116 2.09397C47.5436 2.05197 47.3276 2.03997 47.1656 2.03997H45.1016V4.95597ZM53.1895 9.50397C51.7795 9.50397 51.0175 8.61597 51.0175 7.54797C51.0175 6.60597 51.4675 5.96397 52.4935 5.60997C53.1775 5.38797 54.1795 5.24997 55.3135 5.08197C55.2595 4.33797 54.8695 3.98997 53.9875 3.98997C53.4055 3.98997 52.7875 4.23597 52.5715 4.89597L51.2515 4.48197C51.5695 3.38997 52.4635 2.66397 53.9875 2.66397C55.1395 2.66397 56.0575 3.01197 56.4835 3.86997C56.7115 4.32597 56.7295 4.78797 56.7295 5.34597V9.32397H55.4635V8.45397C54.9115 9.17397 54.2215 9.50397 53.1895 9.50397ZM52.4335 7.52997C52.4335 8.00397 52.7935 8.35197 53.4775 8.35197C54.4615 8.35197 55.0075 7.72797 55.1515 7.27797C55.2715 6.98397 55.2895 6.56997 55.2955 6.26997C54.2635 6.43197 53.6755 6.52197 53.2195 6.67797C52.7215 6.86397 52.4335 7.10997 52.4335 7.52997ZM61.8896 9.32397C60.6056 9.56997 59.2976 9.45597 58.7936 8.52597C58.4936 7.96797 58.5476 7.42197 58.5476 6.67797V3.97797H57.3716V2.84397H58.5476V1.04397H59.9876V2.84397H61.8896V3.97797H59.9876V6.59397C59.9876 7.10997 59.9636 7.51197 60.1196 7.75797C60.4076 8.23797 61.0796 8.23197 61.8896 8.11197V9.32397ZM63.203 1.85997V0.533974H64.649V1.85997H63.203ZM63.203 9.32397V2.84397H64.649V9.32397H63.203ZM70.7283 6.20397C70.7283 5.40597 70.5963 4.01997 69.2163 4.01997C68.4783 4.01997 67.6983 4.42197 67.6983 5.99397V9.32397H66.2343V2.84397H67.5243V3.56397C67.9983 3.00597 68.7063 2.65797 69.6423 2.65797C72.0303 2.65797 72.1923 4.93797 72.1923 5.70597V9.32397H70.7283V6.20397ZM76.282 12.384C75.202 12.384 74.212 11.856 73.708 10.974L75.04 10.314C75.28 10.782 75.778 11.01 76.288 11.01C77.188 11.01 77.842 10.536 77.824 9.61197V8.99397C77.386 9.31797 76.828 9.50397 76.156 9.50397C74.362 9.50397 73.198 8.02797 73.198 6.08397C73.198 4.11597 74.374 2.66397 76.21 2.66397C76.948 2.66397 77.548 2.89797 78.004 3.31197V2.84397H79.27V9.63597C79.27 9.97197 79.246 10.26 79.18 10.548C78.886 11.802 77.746 12.384 76.282 12.384ZM74.728 6.08397C74.728 7.27197 75.25 8.20797 76.378 8.20797C77.542 8.20797 78.004 7.33797 78.004 6.08397C78.004 4.81797 77.53 3.95997 76.426 3.95997C75.262 3.95997 74.728 4.90797 74.728 6.08397Z" fill="#6A6A6A"/>
<path d="M5.53241 27V25.334H1.06641V23.759L4.29341 16.92H6.21841L2.99141 23.759H5.53241V21.134H7.24041V23.759H8.18541V25.334H7.24041V27H5.53241ZM9.57055 27V25.271H11.2995V27H9.57055ZM16.4975 16.724C17.1555 16.724 17.7482 16.8803 18.2755 17.193C18.8028 17.501 19.2182 17.9303 19.5215 18.481C19.8295 19.027 19.9835 19.657 19.9835 20.371V23.444C19.9835 24.2047 19.8295 24.8697 19.5215 25.439C19.2182 26.0037 18.7912 26.44 18.2405 26.748C17.6898 27.056 17.0458 27.21 16.3085 27.21C15.7998 27.21 15.3192 27.1237 14.8665 26.951C14.4138 26.7737 14.0078 26.503 13.6485 26.139L14.8595 24.956C15.0415 25.166 15.2585 25.3317 15.5105 25.453C15.7672 25.5697 16.0332 25.628 16.3085 25.628C16.7005 25.628 17.0435 25.537 17.3375 25.355C17.6315 25.1683 17.8602 24.928 18.0235 24.634C18.1868 24.3353 18.2685 24.0157 18.2685 23.675V22.002L18.5695 22.338C18.2848 22.674 17.9395 22.9377 17.5335 23.129C17.1275 23.3157 16.7005 23.409 16.2525 23.409C15.6225 23.409 15.0625 23.2643 14.5725 22.975C14.0872 22.6857 13.7045 22.2937 13.4245 21.799C13.1492 21.2997 13.0115 20.735 13.0115 20.105C13.0115 19.475 13.1702 18.9057 13.4875 18.397C13.8048 17.8837 14.2272 17.4777 14.7545 17.179C15.2865 16.8757 15.8675 16.724 16.4975 16.724ZM16.4975 18.334C16.1708 18.334 15.8722 18.4133 15.6015 18.572C15.3308 18.7307 15.1162 18.9453 14.9575 19.216C14.7988 19.482 14.7195 19.7783 14.7195 20.105C14.7195 20.4317 14.7965 20.7303 14.9505 21.001C15.1092 21.2717 15.3215 21.4863 15.5875 21.645C15.8582 21.8037 16.1568 21.883 16.4835 21.883C16.8102 21.883 17.1088 21.8037 17.3795 21.645C17.6502 21.4863 17.8648 21.2717 18.0235 21.001C18.1868 20.7303 18.2685 20.4317 18.2685 20.105C18.2685 19.7877 18.1892 19.496 18.0305 19.23C17.8718 18.9593 17.6572 18.7423 17.3865 18.579C17.1205 18.4157 16.8242 18.334 16.4975 18.334Z" fill="#FEA500"/>
<path d="M39.1987 14.441C39.4266 13.9824 40.0808 13.9824 40.3087 14.441L42.1697 18.1866C42.2599 18.3682 42.4333 18.4942 42.6339 18.5239L46.7713 19.1363C47.2779 19.2113 47.48 19.8335 47.1143 20.192L44.1271 23.1194C43.9823 23.2613 43.916 23.4651 43.9498 23.6651L44.6458 27.7892C44.731 28.2942 44.2017 28.6787 43.7478 28.4416L40.0406 26.5053C39.8609 26.4114 39.6465 26.4114 39.4668 26.5053L35.7596 28.4416C35.3057 28.6787 34.7764 28.2942 34.8616 27.7892L35.5576 23.6651C35.5914 23.4651 35.5251 23.2613 35.3803 23.1194L32.3931 20.192C32.0273 19.8335 32.2295 19.2113 32.7361 19.1363L36.8735 18.5239C37.0741 18.4942 37.2475 18.3682 37.3377 18.1866L39.1987 14.441Z" fill="#FEA500"/>
<path d="M56.5508 14.441C56.7786 13.9824 57.4329 13.9824 57.6607 14.441L59.5217 18.1866C59.612 18.3682 59.7854 18.4942 59.986 18.5239L64.1233 19.1363C64.6299 19.2113 64.8321 19.8335 64.4663 20.192L61.4791 23.1194C61.3343 23.2613 61.2681 23.4651 61.3018 23.6651L61.9978 27.7892C62.0831 28.2942 61.5538 28.6787 61.0998 28.4416L57.3927 26.5053C57.2129 26.4114 56.9986 26.4114 56.8188 26.5053L53.1116 28.4416C52.6577 28.6787 52.1284 28.2942 52.2137 27.7892L52.9097 23.6651C52.9434 23.4651 52.8772 23.2613 52.7323 23.1194L49.7452 20.192C49.3794 19.8335 49.5816 19.2113 50.0882 19.1363L54.2255 18.5239C54.4261 18.4942 54.5995 18.3682 54.6897 18.1866L56.5508 14.441Z" fill="#FEA500"/>
<path d="M73.9028 14.441C74.1307 13.9824 74.7849 13.9824 75.0128 14.441L76.8738 18.1866C76.964 18.3682 77.1374 18.4942 77.338 18.5239L81.4754 19.1363C81.982 19.2113 82.1841 19.8335 81.8184 20.192L78.8312 23.1194C78.6864 23.2613 78.6201 23.4651 78.6539 23.6651L79.3499 27.7892C79.4351 28.2942 78.9058 28.6787 78.4519 28.4416L74.7447 26.5053C74.565 26.4114 74.3506 26.4114 74.1709 26.5053L70.4637 28.4416C70.0098 28.6787 69.4805 28.2942 69.5657 27.7892L70.2617 23.6651C70.2955 23.4651 70.2292 23.2613 70.0844 23.1194L67.0972 20.192C66.7314 19.8335 66.9336 19.2113 67.4402 19.1363L71.5776 18.5239C71.7782 18.4942 71.9516 18.3682 72.0418 18.1866L73.9028 14.441Z" fill="#FEA500"/>
<path d="M91.2549 14.441C91.4827 13.9824 92.137 13.9824 92.3648 14.441L94.2258 18.1866C94.3161 18.3682 94.4895 18.4942 94.6901 18.5239L98.8274 19.1363C99.334 19.2113 99.5362 19.8335 99.1704 20.192L96.1832 23.1194C96.0384 23.2613 95.9722 23.4651 96.0059 23.6651L96.7019 27.7892C96.7872 28.2942 96.2579 28.6787 95.8039 28.4416L92.0968 26.5053C91.917 26.4114 91.7027 26.4114 91.5229 26.5053L87.8157 28.4416C87.3618 28.6787 86.8325 28.2942 86.9178 27.7892L87.6138 23.6651C87.6475 23.4651 87.5813 23.2613 87.4364 23.1194L84.4493 20.192C84.0835 19.8335 84.2857 19.2113 84.7923 19.1363L88.9296 18.5239C89.1302 18.4942 89.3036 18.3682 89.3938 18.1866L91.2549 14.441Z" fill="#FEA500"/>
<path d="M108.607 14.441C108.835 13.9824 109.49 13.9824 109.717 14.441L111.578 18.1866C111.669 18.3682 111.842 18.4942 112.043 18.5239L116.18 19.1363C116.687 19.2113 116.889 19.8335 116.523 20.192L113.536 23.1194C113.391 23.2613 113.325 23.4651 113.358 23.6651L114.054 27.7892C114.14 28.2942 113.61 28.6787 113.156 28.4416L109.449 26.5053C109.27 26.4114 109.055 26.4114 108.875 26.5053L105.168 28.4416C104.714 28.6787 104.185 28.2942 104.27 27.7892L104.966 23.6651C105 23.4651 104.934 23.2613 104.789 23.1194L101.802 20.192C101.436 19.8335 101.638 19.2113 102.145 19.1363L106.282 18.5239C106.483 18.4942 106.656 18.3682 106.746 18.1866L108.607 14.441Z" fill="#FEA500"/>
</svg>
