<svg width="196" height="68" viewBox="0 0 196 68" fill="none" xmlns="http://www.w3.org/2000/svg">
<path d="M53.0434 34.4169C53.0434 33.1169 52.9267 31.8669 52.71 30.6669H35.4434V37.7669H45.31C44.8767 40.0502 43.5767 41.9836 41.6267 43.2836V47.9002H47.5767C51.0434 44.7002 53.0434 40.0002 53.0434 34.4169Z" fill="#4285F4"/>
<path d="M35.4428 52.3333C40.3928 52.3333 44.5428 50.7 47.5762 47.9L41.6262 43.2833C39.9928 44.3833 37.9095 45.05 35.4428 45.05C30.6762 45.05 26.6262 41.8333 25.1762 37.5H19.0762V42.2333C22.0928 48.2167 28.2762 52.3333 35.4428 52.3333Z" fill="#34A853"/>
<path d="M25.1819 37.4837C24.8152 36.3837 24.5986 35.217 24.5986 34.0004C24.5986 32.7837 24.8152 31.617 25.1819 30.517V25.7837H19.0819C17.8319 28.2504 17.1152 31.0337 17.1152 34.0004C17.1152 36.967 17.8319 39.7504 19.0819 42.217L23.8319 38.517L25.1819 37.4837Z" fill="#FBBC05"/>
<path d="M35.4428 22.967C38.1428 22.967 40.5428 23.9003 42.4595 25.7003L47.7095 20.4503C44.5262 17.4837 40.3928 15.667 35.4428 15.667C28.2762 15.667 22.0928 19.7837 19.0762 25.7837L25.1762 30.517C26.6262 26.1837 30.6762 22.967 35.4428 22.967Z" fill="#EA4335"/>
<path d="M67.334 28.0039C66.774 28.0039 66.248 27.9059 65.756 27.7099C65.268 27.5099 64.838 27.2179 64.466 26.8339C64.098 26.4499 63.81 25.9799 63.602 25.4239C63.394 24.8639 63.29 24.2239 63.29 23.5039C63.29 22.5599 63.466 21.7539 63.818 21.0859C64.17 20.4139 64.652 19.8999 65.264 19.5439C65.876 19.1839 66.566 19.0039 67.334 19.0039C68.398 19.0039 69.24 19.2519 69.86 19.7479C70.484 20.2399 70.906 20.9319 71.126 21.8239L69.65 22.0579C69.486 21.5459 69.218 21.1379 68.846 20.8339C68.474 20.5259 68 20.3719 67.424 20.3719C66.844 20.3639 66.362 20.4899 65.978 20.7499C65.594 21.0099 65.304 21.3759 65.108 21.8479C64.916 22.3199 64.82 22.8719 64.82 23.5039C64.82 24.1359 64.916 24.6859 65.108 25.1539C65.3 25.6179 65.588 25.9799 65.972 26.2399C66.36 26.4999 66.844 26.6339 67.424 26.6419C67.86 26.6459 68.242 26.5679 68.57 26.4079C68.898 26.2439 69.166 25.9979 69.374 25.6699C69.582 25.3379 69.722 24.9239 69.794 24.4279H68.27V23.2939H71.33C71.338 23.3579 71.344 23.4519 71.348 23.5759C71.352 23.6999 71.354 23.7739 71.354 23.7979C71.354 24.6139 71.192 25.3399 70.868 25.9759C70.548 26.6079 70.088 27.1039 69.488 27.4639C68.888 27.8239 68.17 28.0039 67.334 28.0039ZM75.221 28.0039C74.573 28.0039 74.007 27.8579 73.523 27.5659C73.039 27.2739 72.663 26.8719 72.395 26.3599C72.131 25.8439 71.999 25.2519 71.999 24.5839C71.999 23.9039 72.135 23.3079 72.407 22.7959C72.679 22.2839 73.057 21.8839 73.541 21.5959C74.025 21.3079 74.585 21.1639 75.221 21.1639C75.873 21.1639 76.441 21.3099 76.925 21.6019C77.409 21.8939 77.785 22.2979 78.053 22.8139C78.321 23.3259 78.455 23.9159 78.455 24.5839C78.455 25.2559 78.319 25.8499 78.047 26.3659C77.779 26.8779 77.403 27.2799 76.919 27.5719C76.435 27.8599 75.869 28.0039 75.221 28.0039ZM75.221 26.6479C75.797 26.6479 76.225 26.4559 76.505 26.0719C76.785 25.6879 76.925 25.1919 76.925 24.5839C76.925 23.9559 76.783 23.4559 76.499 23.0839C76.215 22.7079 75.789 22.5199 75.221 22.5199C74.833 22.5199 74.513 22.6079 74.261 22.7839C74.013 22.9559 73.829 23.1979 73.709 23.5099C73.589 23.8179 73.529 24.1759 73.529 24.5839C73.529 25.2119 73.671 25.7139 73.955 26.0899C74.243 26.4619 74.665 26.6479 75.221 26.6479ZM82.439 28.0039C81.791 28.0039 81.225 27.8579 80.741 27.5659C80.257 27.2739 79.881 26.8719 79.613 26.3599C79.349 25.8439 79.217 25.2519 79.217 24.5839C79.217 23.9039 79.353 23.3079 79.625 22.7959C79.897 22.2839 80.275 21.8839 80.759 21.5959C81.243 21.3079 81.803 21.1639 82.439 21.1639C83.091 21.1639 83.659 21.3099 84.143 21.6019C84.627 21.8939 85.003 22.2979 85.271 22.8139C85.539 23.3259 85.673 23.9159 85.673 24.5839C85.673 25.2559 85.537 25.8499 85.265 26.3659C84.997 26.8779 84.621 27.2799 84.137 27.5719C83.653 27.8599 83.087 28.0039 82.439 28.0039ZM82.439 26.6479C83.015 26.6479 83.443 26.4559 83.723 26.0719C84.003 25.6879 84.143 25.1919 84.143 24.5839C84.143 23.9559 84.001 23.4559 83.717 23.0839C83.433 22.7079 83.007 22.5199 82.439 22.5199C82.051 22.5199 81.731 22.6079 81.479 22.7839C81.231 22.9559 81.047 23.1979 80.927 23.5099C80.807 23.8179 80.747 24.1759 80.747 24.5839C80.747 25.2119 80.889 25.7139 81.173 26.0899C81.461 26.4619 81.883 26.6479 82.439 26.6479ZM89.519 30.8839C89.159 30.8839 88.813 30.8279 88.481 30.7159C88.153 30.6039 87.857 30.4419 87.593 30.2299C87.329 30.0219 87.113 29.7699 86.945 29.4739L88.277 28.8139C88.401 29.0499 88.575 29.2239 88.799 29.3359C89.027 29.4519 89.269 29.5099 89.525 29.5099C89.825 29.5099 90.093 29.4559 90.329 29.3479C90.565 29.2439 90.747 29.0879 90.875 28.8799C91.007 28.6759 91.069 28.4199 91.061 28.1119V26.2699H91.241V21.3439H92.507V28.1359C92.507 28.2999 92.499 28.4559 92.483 28.6039C92.471 28.7559 92.449 28.9039 92.417 29.0479C92.321 29.4679 92.137 29.8119 91.865 30.0799C91.593 30.3519 91.255 30.5539 90.851 30.6859C90.451 30.8179 90.007 30.8839 89.519 30.8839ZM89.393 28.0039C88.797 28.0039 88.277 27.8539 87.833 27.5539C87.389 27.2539 87.045 26.8459 86.801 26.3299C86.557 25.8139 86.435 25.2319 86.435 24.5839C86.435 23.9279 86.557 23.3439 86.801 22.8319C87.049 22.3159 87.399 21.9099 87.851 21.6139C88.303 21.3139 88.835 21.1639 89.447 21.1639C90.063 21.1639 90.579 21.3139 90.995 21.6139C91.415 21.9099 91.733 22.3159 91.949 22.8319C92.165 23.3479 92.273 23.9319 92.273 24.5839C92.273 25.2279 92.165 25.8099 91.949 26.3299C91.733 26.8459 91.411 27.2539 90.983 27.5539C90.555 27.8539 90.025 28.0039 89.393 28.0039ZM89.615 26.7079C90.003 26.7079 90.315 26.6199 90.551 26.4439C90.791 26.2639 90.965 26.0139 91.073 25.6939C91.185 25.3739 91.241 25.0039 91.241 24.5839C91.241 24.1599 91.185 23.7899 91.073 23.4739C90.965 23.1539 90.795 22.9059 90.563 22.7299C90.331 22.5499 90.031 22.4599 89.663 22.4599C89.275 22.4599 88.955 22.5559 88.703 22.7479C88.451 22.9359 88.265 23.1919 88.145 23.5159C88.025 23.8359 87.965 24.1919 87.965 24.5839C87.965 24.9799 88.023 25.3399 88.139 25.6639C88.259 25.9839 88.441 26.2379 88.685 26.4259C88.929 26.6139 89.239 26.7079 89.615 26.7079ZM94.1095 27.8239V19.0039H95.5555V27.8239H94.1095ZM100.099 28.0039C99.4428 28.0039 98.8668 27.8619 98.3708 27.5779C97.8748 27.2939 97.4868 26.8999 97.2068 26.3959C96.9308 25.8919 96.7928 25.3119 96.7928 24.6559C96.7928 23.9479 96.9288 23.3339 97.2008 22.8139C97.4728 22.2899 97.8508 21.8839 98.3348 21.5959C98.8188 21.3079 99.3788 21.1639 100.015 21.1639C100.687 21.1639 101.257 21.3219 101.725 21.6379C102.197 21.9499 102.547 22.3919 102.775 22.9639C103.003 23.5359 103.089 24.2099 103.033 24.9859H101.599V24.4579C101.595 23.7539 101.471 23.2399 101.227 22.9159C100.983 22.5919 100.599 22.4299 100.075 22.4299C99.4828 22.4299 99.0428 22.6139 98.7548 22.9819C98.4668 23.3459 98.3228 23.8799 98.3228 24.5839C98.3228 25.2399 98.4668 25.7479 98.7548 26.1079C99.0428 26.4679 99.4628 26.6479 100.015 26.6479C100.371 26.6479 100.677 26.5699 100.933 26.4139C101.193 26.2539 101.393 26.0239 101.533 25.7239L102.961 26.1559C102.713 26.7399 102.329 27.1939 101.809 27.5179C101.293 27.8419 100.723 28.0039 100.099 28.0039ZM97.8668 24.9859V23.8939H102.325V24.9859H97.8668ZM106.374 27.8239V19.1839H109.944C110.028 19.1839 110.136 19.1879 110.268 19.1959C110.4 19.1999 110.522 19.2119 110.634 19.2319C111.134 19.3079 111.546 19.4739 111.87 19.7299C112.198 19.9859 112.44 20.3099 112.596 20.7019C112.756 21.0899 112.836 21.5219 112.836 21.9979C112.836 22.7019 112.658 23.3079 112.302 23.8159C111.946 24.3199 111.4 24.6319 110.664 24.7519L110.046 24.8059H107.82V27.8239H106.374ZM111.336 27.8239L109.632 24.3079L111.102 23.9839L112.974 27.8239H111.336ZM107.82 23.4559H109.884C109.964 23.4559 110.054 23.4519 110.154 23.4439C110.254 23.4359 110.346 23.4199 110.43 23.3959C110.67 23.3359 110.858 23.2299 110.994 23.0779C111.134 22.9259 111.232 22.7539 111.288 22.5619C111.348 22.3699 111.378 22.1819 111.378 21.9979C111.378 21.8139 111.348 21.6259 111.288 21.4339C111.232 21.2379 111.134 21.0639 110.994 20.9119C110.858 20.7599 110.67 20.6539 110.43 20.5939C110.346 20.5699 110.254 20.5559 110.154 20.5519C110.054 20.5439 109.964 20.5399 109.884 20.5399H107.82V23.4559ZM115.908 28.0039C115.44 28.0039 115.044 27.9159 114.72 27.7399C114.396 27.5599 114.15 27.3219 113.982 27.0259C113.818 26.7299 113.736 26.4039 113.736 26.0479C113.736 25.7359 113.788 25.4559 113.892 25.2079C113.996 24.9559 114.156 24.7399 114.372 24.5599C114.588 24.3759 114.868 24.2259 115.212 24.1099C115.472 24.0259 115.776 23.9499 116.124 23.8819C116.476 23.8139 116.856 23.7519 117.264 23.6959C117.676 23.6359 118.106 23.5719 118.554 23.5039L118.038 23.7979C118.042 23.3499 117.942 23.0199 117.738 22.8079C117.534 22.5959 117.19 22.4899 116.706 22.4899C116.414 22.4899 116.132 22.5579 115.86 22.6939C115.588 22.8299 115.398 23.0639 115.29 23.3959L113.97 22.9819C114.13 22.4339 114.434 21.9939 114.882 21.6619C115.334 21.3299 115.942 21.1639 116.706 21.1639C117.282 21.1639 117.788 21.2579 118.224 21.4459C118.664 21.6339 118.99 21.9419 119.202 22.3699C119.318 22.5979 119.388 22.8319 119.412 23.0719C119.436 23.3079 119.448 23.5659 119.448 23.8459V27.8239H118.182V26.4199L118.392 26.6479C118.1 27.1159 117.758 27.4599 117.366 27.6799C116.978 27.8959 116.492 28.0039 115.908 28.0039ZM116.196 26.8519C116.524 26.8519 116.804 26.7939 117.036 26.6779C117.268 26.5619 117.452 26.4199 117.588 26.2519C117.728 26.0839 117.822 25.9259 117.87 25.7779C117.946 25.5939 117.988 25.3839 117.996 25.1479C118.008 24.9079 118.014 24.7139 118.014 24.5659L118.458 24.6979C118.022 24.7659 117.648 24.8259 117.336 24.8779C117.024 24.9299 116.756 24.9799 116.532 25.0279C116.308 25.0719 116.11 25.1219 115.938 25.1779C115.77 25.2379 115.628 25.3079 115.512 25.3879C115.396 25.4679 115.306 25.5599 115.242 25.6639C115.182 25.7679 115.152 25.8899 115.152 26.0299C115.152 26.1899 115.192 26.3319 115.272 26.4559C115.352 26.5759 115.468 26.6719 115.62 26.7439C115.776 26.8159 115.968 26.8519 116.196 26.8519ZM124.608 27.8239C124.18 27.9039 123.76 27.9379 123.348 27.9259C122.94 27.9179 122.574 27.8439 122.25 27.7039C121.926 27.5599 121.68 27.3339 121.512 27.0259C121.364 26.7459 121.286 26.4599 121.278 26.1679C121.27 25.8759 121.266 25.5459 121.266 25.1779V19.5439H122.706V25.0939C122.706 25.3539 122.708 25.5819 122.712 25.7779C122.72 25.9739 122.762 26.1339 122.838 26.2579C122.982 26.4979 123.212 26.6319 123.528 26.6599C123.844 26.6879 124.204 26.6719 124.608 26.6119V27.8239ZM120.09 22.4779V21.3439H124.608V22.4779H120.09ZM125.921 20.3599V19.0339H127.367V20.3599H125.921ZM125.921 27.8239V21.3439H127.367V27.8239H125.921ZM133.447 27.8239V24.7039C133.447 24.4999 133.433 24.2739 133.405 24.0259C133.377 23.7779 133.311 23.5399 133.207 23.3119C133.107 23.0799 132.955 22.8899 132.751 22.7419C132.551 22.5939 132.279 22.5199 131.935 22.5199C131.751 22.5199 131.569 22.5499 131.389 22.6099C131.209 22.6699 131.045 22.7739 130.897 22.9219C130.753 23.0659 130.637 23.2659 130.549 23.5219C130.461 23.7739 130.417 24.0979 130.417 24.4939L129.559 24.1279C129.559 23.5759 129.665 23.0759 129.877 22.6279C130.093 22.1799 130.409 21.8239 130.825 21.5599C131.241 21.2919 131.753 21.1579 132.361 21.1579C132.841 21.1579 133.237 21.2379 133.549 21.3979C133.861 21.5579 134.109 21.7619 134.293 22.0099C134.477 22.2579 134.613 22.5219 134.701 22.8019C134.789 23.0819 134.845 23.3479 134.869 23.5999C134.897 23.8479 134.911 24.0499 134.911 24.2059V27.8239H133.447ZM128.953 27.8239V21.3439H130.243V23.3539H130.417V27.8239H128.953ZM139 30.8839C138.64 30.8839 138.294 30.8279 137.962 30.7159C137.634 30.6039 137.338 30.4419 137.074 30.2299C136.81 30.0219 136.594 29.7699 136.426 29.4739L137.758 28.8139C137.882 29.0499 138.056 29.2239 138.28 29.3359C138.508 29.4519 138.75 29.5099 139.006 29.5099C139.306 29.5099 139.574 29.4559 139.81 29.3479C140.046 29.2439 140.228 29.0879 140.356 28.8799C140.488 28.6759 140.55 28.4199 140.542 28.1119V26.2699H140.722V21.3439H141.988V28.1359C141.988 28.2999 141.98 28.4559 141.964 28.6039C141.952 28.7559 141.93 28.9039 141.898 29.0479C141.802 29.4679 141.618 29.8119 141.346 30.0799C141.074 30.3519 140.736 30.5539 140.332 30.6859C139.932 30.8179 139.488 30.8839 139 30.8839ZM138.874 28.0039C138.278 28.0039 137.758 27.8539 137.314 27.5539C136.87 27.2539 136.526 26.8459 136.282 26.3299C136.038 25.8139 135.916 25.2319 135.916 24.5839C135.916 23.9279 136.038 23.3439 136.282 22.8319C136.53 22.3159 136.88 21.9099 137.332 21.6139C137.784 21.3139 138.316 21.1639 138.928 21.1639C139.544 21.1639 140.06 21.3139 140.476 21.6139C140.896 21.9099 141.214 22.3159 141.43 22.8319C141.646 23.3479 141.754 23.9319 141.754 24.5839C141.754 25.2279 141.646 25.8099 141.43 26.3299C141.214 26.8459 140.892 27.2539 140.464 27.5539C140.036 27.8539 139.506 28.0039 138.874 28.0039ZM139.096 26.7079C139.484 26.7079 139.796 26.6199 140.032 26.4439C140.272 26.2639 140.446 26.0139 140.554 25.6939C140.666 25.3739 140.722 25.0039 140.722 24.5839C140.722 24.1599 140.666 23.7899 140.554 23.4739C140.446 23.1539 140.276 22.9059 140.044 22.7299C139.812 22.5499 139.512 22.4599 139.144 22.4599C138.756 22.4599 138.436 22.5559 138.184 22.7479C137.932 22.9359 137.746 23.1919 137.626 23.5159C137.506 23.8359 137.446 24.1919 137.446 24.5839C137.446 24.9799 137.504 25.3399 137.62 25.6639C137.74 25.9839 137.922 26.2379 138.166 26.4259C138.41 26.6139 138.72 26.7079 139.096 26.7079Z" fill="white"/>
<path d="M68.2507 45.5V43.834H63.7847V42.259L67.0117 35.42H68.9367L65.7097 42.259H68.2507V39.634H69.9587V42.259H70.9037V43.834H69.9587V45.5H68.2507ZM72.2888 45.5V43.771H74.0178V45.5H72.2888ZM79.2158 35.224C79.8738 35.224 80.4664 35.3803 80.9938 35.693C81.5211 36.001 81.9364 36.4303 82.2398 36.981C82.5478 37.527 82.7018 38.157 82.7018 38.871V41.944C82.7018 42.7047 82.5478 43.3697 82.2398 43.939C81.9364 44.5037 81.5094 44.94 80.9588 45.248C80.4081 45.556 79.7641 45.71 79.0268 45.71C78.5181 45.71 78.0374 45.6237 77.5848 45.451C77.1321 45.2737 76.7261 45.003 76.3668 44.639L77.5778 43.456C77.7598 43.666 77.9768 43.8317 78.2288 43.953C78.4854 44.0697 78.7514 44.128 79.0268 44.128C79.4188 44.128 79.7618 44.037 80.0558 43.855C80.3498 43.6683 80.5784 43.428 80.7418 43.134C80.9051 42.8353 80.9868 42.5157 80.9868 42.175V40.502L81.2878 40.838C81.0031 41.174 80.6578 41.4377 80.2518 41.629C79.8458 41.8157 79.4188 41.909 78.9708 41.909C78.3408 41.909 77.7808 41.7643 77.2908 41.475C76.8054 41.1857 76.4228 40.7937 76.1428 40.299C75.8674 39.7997 75.7298 39.235 75.7298 38.605C75.7298 37.975 75.8884 37.4057 76.2058 36.897C76.5231 36.3837 76.9454 35.9777 77.4728 35.679C78.0048 35.3757 78.5858 35.224 79.2158 35.224ZM79.2158 36.834C78.8891 36.834 78.5904 36.9133 78.3198 37.072C78.0491 37.2307 77.8344 37.4453 77.6758 37.716C77.5171 37.982 77.4378 38.2783 77.4378 38.605C77.4378 38.9317 77.5148 39.2303 77.6688 39.501C77.8274 39.7717 78.0398 39.9863 78.3058 40.145C78.5764 40.3037 78.8751 40.383 79.2018 40.383C79.5284 40.383 79.8271 40.3037 80.0978 40.145C80.3684 39.9863 80.5831 39.7717 80.7418 39.501C80.9051 39.2303 80.9868 38.9317 80.9868 38.605C80.9868 38.2877 80.9074 37.996 80.7488 37.73C80.5901 37.4593 80.3754 37.2423 80.1048 37.079C79.8388 36.9157 79.5424 36.834 79.2158 36.834Z" fill="#FEA500"/>
<path d="M101.917 32.941C102.145 32.4823 102.799 32.4823 103.027 32.941L104.888 36.6865C104.978 36.8682 105.152 36.9941 105.352 37.0238L109.49 37.6363C109.996 37.7113 110.198 38.3335 109.833 38.692L106.845 41.6193C106.701 41.7613 106.634 41.9651 106.668 42.1651L107.364 46.2892C107.449 46.7942 106.92 47.1787 106.466 46.9416L102.759 45.0052C102.579 44.9114 102.365 44.9114 102.185 45.0052L98.4779 46.9416C98.0239 47.1787 97.4946 46.7942 97.5799 46.2892L98.2759 42.1651C98.3096 41.9651 98.2434 41.7613 98.0986 41.6193L95.1114 38.692C94.7456 38.3335 94.9478 37.7113 95.4544 37.6363L99.5917 37.0238C99.7923 36.9941 99.9657 36.8682 100.056 36.6865L101.917 32.941Z" fill="#FEA500"/>
<path d="M119.269 32.941C119.497 32.4823 120.151 32.4823 120.379 32.941L122.24 36.6865C122.33 36.8682 122.504 36.9941 122.704 37.0238L126.842 37.6363C127.348 37.7113 127.55 38.3335 127.185 38.692L124.197 41.6193C124.053 41.7613 123.986 41.9651 124.02 42.1651L124.716 46.2892C124.801 46.7942 124.272 47.1787 123.818 46.9416L120.111 45.0052C119.931 44.9114 119.717 44.9114 119.537 45.0052L115.83 46.9416C115.376 47.1787 114.847 46.7942 114.932 46.2892L115.628 42.1651C115.662 41.9651 115.595 41.7613 115.451 41.6193L112.463 38.692C112.098 38.3335 112.3 37.7113 112.806 37.6363L116.944 37.0238C117.144 36.9941 117.318 36.8682 117.408 36.6865L119.269 32.941Z" fill="#FEA500"/>
<path d="M136.621 32.941C136.849 32.4823 137.503 32.4823 137.731 32.941L139.592 36.6865C139.682 36.8682 139.856 36.9941 140.056 37.0238L144.194 37.6363C144.7 37.7113 144.902 38.3335 144.537 38.692L141.549 41.6193C141.405 41.7613 141.338 41.9651 141.372 42.1651L142.068 46.2892C142.153 46.7942 141.624 47.1787 141.17 46.9416L137.463 45.0052C137.283 44.9114 137.069 44.9114 136.889 45.0052L133.182 46.9416C132.728 47.1787 132.199 46.7942 132.284 46.2892L132.98 42.1651C133.014 41.9651 132.947 41.7613 132.803 41.6193L129.815 38.692C129.45 38.3335 129.652 37.7113 130.158 37.6363L134.296 37.0238C134.496 36.9941 134.67 36.8682 134.76 36.6865L136.621 32.941Z" fill="#FEA500"/>
<path d="M153.973 32.941C154.201 32.4823 154.855 32.4823 155.083 32.941L156.944 36.6865C157.034 36.8682 157.208 36.9941 157.408 37.0238L161.546 37.6363C162.052 37.7113 162.254 38.3335 161.889 38.692L158.902 41.6193C158.757 41.7613 158.69 41.9651 158.724 42.1651L159.42 46.2892C159.505 46.7942 158.976 47.1787 158.522 46.9416L154.815 45.0052C154.635 44.9114 154.421 44.9114 154.241 45.0052L150.534 46.9416C150.08 47.1787 149.551 46.7942 149.636 46.2892L150.332 42.1651C150.366 41.9651 150.3 41.7613 150.155 41.6193L147.168 38.692C146.802 38.3335 147.004 37.7113 147.511 37.6363L151.648 37.0238C151.848 36.9941 152.022 36.8682 152.112 36.6865L153.973 32.941Z" fill="#FEA500"/>
<path d="M171.325 32.941C171.553 32.4823 172.207 32.4823 172.435 32.941L174.296 36.6865C174.386 36.8682 174.56 36.9941 174.76 37.0238L178.898 37.6363C179.404 37.7113 179.607 38.3335 179.241 38.692L176.254 41.6193C176.109 41.7613 176.042 41.9651 176.076 42.1651L176.772 46.2892C176.857 46.7942 176.328 47.1787 175.874 46.9416L172.167 45.0052C171.987 44.9114 171.773 44.9114 171.593 45.0052L167.886 46.9416C167.432 47.1787 166.903 46.7942 166.988 46.2892L167.684 42.1651C167.718 41.9651 167.652 41.7613 167.507 41.6193L164.52 38.692C164.154 38.3335 164.356 37.7113 164.863 37.6363L169 37.0238C169.201 36.9941 169.374 36.8682 169.464 36.6865L171.325 32.941Z" fill="#FEA500"/>
</svg>
