<svg width="186" height="37" viewBox="0 0 186 37" fill="none" xmlns="http://www.w3.org/2000/svg">
<path fill-rule="evenodd" clip-rule="evenodd" d="M18.4722 0C20.04 0 22.2961 0.270448 23.4433 0.618167C24.5904 0.965886 26.5789 1.77723 27.8025 2.43403C29.0261 3.12947 30.9381 4.63625 32.0088 5.79531C33.0795 6.95438 34.4561 8.88615 35.0296 10.0452C35.6032 11.2043 36.3298 13.561 36.6739 15.261C37.2092 17.8496 37.2475 18.8155 36.8651 21.0563C36.6357 22.5245 35.8326 24.9971 35.1443 26.4653C34.456 27.9334 33.2706 29.8652 32.5441 30.7152C31.8176 31.5651 30.2115 32.956 28.9497 33.7674C27.726 34.6173 25.7376 35.6219 24.5904 36.0082C23.4433 36.3946 21.3784 36.8196 20.0018 36.9355C18.3193 37.09 16.6368 36.9741 14.8395 36.5105C13.3865 36.1628 11.2069 35.3901 10.0597 34.7719C8.91253 34.1537 7.15355 32.8401 6.1211 31.8742C5.12689 30.9083 3.78854 29.3243 3.17672 28.2811C2.52666 27.2766 1.64716 25.3448 1.22654 23.954C0.767672 22.3699 0.5 20.3609 0.5 18.545C0.5 16.961 0.729433 14.7587 1.03534 13.7156C1.30301 12.6724 1.95307 10.8952 2.48842 9.85203C3.02376 8.80888 4.17092 7.14755 4.97394 6.18167C5.81519 5.21578 7.42122 3.82491 8.56839 3.09083C9.67731 2.35676 11.7422 1.35224 13.1188 0.888615C14.8013 0.309083 16.5221 0 18.4722 0V0ZM110.169 9.2725C110.666 9.2725 111.24 9.65886 111.584 10.2384C112.081 11.0884 112.081 11.3202 111.584 12.1702C111.201 12.827 110.666 13.136 109.939 13.136C109.366 13.136 108.678 12.9429 108.41 12.6724C108.142 12.402 107.913 11.7065 107.875 11.127C107.836 10.4316 108.066 9.92931 108.563 9.69749C108.945 9.46568 109.672 9.2725 110.131 9.2725H110.169ZM171.848 10.4316H175.29V13.4451C175.251 16.3041 175.29 16.3814 175.94 15.7633C176.322 15.3769 177.278 14.9133 178.043 14.6815C178.999 14.4496 179.993 14.411 180.911 14.6815C181.714 14.8746 182.899 15.6087 183.587 16.3041C184.276 17.0382 185.002 18.3518 185.232 19.3177C185.614 20.67 185.576 21.5199 185.193 23.1813C184.887 24.4949 184.276 25.6926 183.626 26.388C183.052 26.9675 181.905 27.6243 181.102 27.8561C180.337 28.088 179.152 28.2039 178.54 28.0493C177.89 27.9334 176.934 27.5084 176.322 27.0448C175.29 26.2721 175.29 26.2721 175.29 27.0448C175.29 27.7016 175.022 27.8175 171.848 27.8175V10.4316ZM175.748 19.5495C175.404 20.245 175.328 21.2495 175.442 22.0995C175.595 23.0782 176.016 23.8252 176.704 24.3403C177.316 24.8039 178.081 25.1517 178.425 25.113C178.807 25.113 179.649 24.8426 180.261 24.5335C181.064 24.1085 181.522 23.529 181.752 22.4858C181.943 21.7131 182.02 20.7859 181.905 20.4768C181.828 20.1677 181.522 19.5109 181.293 19.0086C181.025 18.545 180.299 17.9655 179.687 17.7723C179.075 17.5405 178.463 17.3859 178.349 17.3859C178.234 17.4246 177.737 17.6564 177.201 17.9268C176.666 18.1973 176.016 18.9314 175.748 19.5495ZM51.4723 11.2043C52.696 11.2043 54.2637 11.4361 54.9138 11.7065C55.6021 12.0156 56.8257 12.9815 57.5905 13.8315C58.3935 14.7201 59.0436 15.7246 59.0436 16.0337C59.0436 16.4587 58.5847 16.6132 57.3228 16.6132C55.908 16.6132 55.3727 16.3814 54.4549 15.4542C53.499 14.4883 53.0019 14.2951 51.4723 14.2951C50.4781 14.2951 49.2927 14.5656 48.7956 14.8746C48.3367 15.1837 47.6867 15.9564 47.3808 16.6132C47.0748 17.27 46.8072 18.7382 46.8072 19.8972C46.8072 21.5972 46.9984 22.254 47.7631 23.1813C48.2985 23.8381 49.2927 24.4949 49.9428 24.688C50.7075 24.9199 51.74 24.9198 52.543 24.7267C53.2695 24.5335 54.302 23.9153 54.8373 23.3744C55.5639 22.6017 56.1757 22.4085 57.3993 22.4085C58.47 22.4085 59.0436 22.5631 59.0436 22.9108C59.0436 23.1426 58.6994 23.8767 58.3171 24.5335C57.9347 25.1903 57.0169 26.0789 56.3286 26.5425C55.6021 26.9675 54.2637 27.5471 53.3078 27.8175C52.0077 28.1652 51.0899 28.1266 49.4839 27.7789C47.9161 27.4312 46.9601 26.9289 45.7365 25.7312C44.5129 24.5721 43.9393 23.6062 43.4804 22.0222C43.1363 20.7472 42.9833 19.3177 43.1363 18.4291C43.251 17.6564 43.7098 16.3428 44.0922 15.5701C44.4746 14.7587 45.2394 13.7156 45.7365 13.252C46.1954 12.7883 47.2278 12.1315 47.9543 11.8224C48.6809 11.5134 50.2869 11.2429 51.4723 11.2043ZM143.207 11.1656L146.419 11.3975L146.61 18.1587H153.493V11.2043L156.744 11.3975L156.935 27.8175H153.493V20.8631H146.61V27.8175H143.169L143.207 11.1656ZM100.341 11.5906H103.783V14.6815H105.313C106.804 14.6815 106.842 14.7201 106.842 16.0337C106.842 17.3473 106.804 17.3859 103.783 17.3859V20.7859C103.783 22.9881 103.936 24.3017 104.242 24.6494C104.51 24.9198 105.198 25.113 105.771 25.113C106.727 25.113 106.842 25.2676 106.842 27.8175H104.739C103.056 27.8175 102.406 27.6243 101.565 26.8903C100.571 26.0016 100.533 25.8085 100.418 21.6745C100.341 17.695 100.265 17.3859 99.5767 17.3859C98.9649 17.3859 98.8119 17.1155 98.8119 16.0337C98.8119 14.9519 98.9649 14.6815 99.5767 14.6815C100.189 14.6815 100.341 14.411 100.341 13.136V11.5906ZM67.915 14.6042C68.1062 14.6815 68.2591 15.4928 68.2591 16.4587C68.2209 18.12 68.1827 18.1587 66.959 18.1587C66.1943 18.1587 65.4295 18.4291 64.9706 18.97C64.3205 19.6654 64.1676 20.3995 64.0146 27.8175H60.5731V14.6815H62.2939C63.5558 14.6815 64.0146 14.836 64.0146 15.261C64.0146 15.5701 64.1294 15.8405 64.2823 15.8405C64.4353 15.8405 64.9324 15.6087 65.353 15.2996C65.7736 15.0292 66.4237 14.7201 66.8443 14.6042C67.2267 14.5269 67.7238 14.5269 67.915 14.6042ZM76.4422 14.5269C77.2835 14.6428 78.4689 15.0292 79.119 15.4155C79.7308 15.7633 80.6485 16.6905 81.1456 17.4246C81.7192 18.3518 81.9869 19.3177 81.9869 22.4085H77.3982C73.5743 22.4085 72.8096 22.5245 72.8096 22.9881C72.8096 23.2972 73.1537 23.9153 73.5743 24.3403C73.995 24.8039 74.8362 25.113 75.5628 25.113C76.3275 25.1517 77.0923 24.8426 77.5894 24.3403C78.1248 23.7994 78.813 23.5676 79.9602 23.5676C81.2603 23.5676 81.6045 23.7222 81.5662 24.263C81.5662 24.6108 80.9162 25.538 80.1514 26.3107C79.119 27.3152 78.2395 27.8175 77.0158 28.0107C75.9069 28.2039 74.6833 28.088 73.6126 27.7789C72.6184 27.4698 71.4712 26.6971 70.8211 26.0016C70.2476 25.3062 69.5593 23.9926 69.3298 23.104C69.1004 22.1767 69.0239 20.8245 69.1769 20.0904C69.3298 19.3563 69.674 18.3132 69.9417 17.7723C70.2093 17.2314 70.7447 16.4973 71.1271 16.1496C71.5094 15.7633 72.5419 15.2224 73.3831 14.8746C74.3009 14.5269 75.4863 14.3724 76.4422 14.5269ZM72.8096 19.5109C72.8096 19.9745 73.3831 20.0904 75.6775 20.0904C77.9718 20.0904 78.5454 19.9745 78.5454 19.5109C78.5454 19.2018 78.2012 18.5836 77.7806 18.1587C77.2835 17.695 76.4805 17.3859 75.6775 17.3859C74.8362 17.3859 74.0332 17.695 73.5743 18.1587C73.1537 18.5836 72.8096 19.2018 72.8096 19.5109ZM90.3994 14.5269C91.1259 14.6428 92.1966 15.0678 92.7702 15.4928C93.8409 16.2269 93.8409 16.2269 93.8409 15.4542C93.8409 14.7974 94.0703 14.6815 97.2824 14.6815V27.8175H95.5616C94.0703 27.8175 93.8409 27.7016 93.8409 27.0448C93.8409 26.2721 93.8409 26.2721 92.7702 27.0834C92.1966 27.5084 91.2024 27.9334 90.5906 28.088C89.9405 28.2039 88.8316 28.088 88.1051 27.8948C87.3785 27.663 86.3079 26.9675 85.7725 26.388C85.1989 25.8085 84.5106 24.8812 84.243 24.3403C83.9753 23.7994 83.7458 22.4085 83.7458 21.2495C83.7841 20.0904 84.0518 18.6223 84.3577 17.9655C84.7018 17.3473 85.3519 16.4201 85.849 15.9564C86.3461 15.4542 87.2638 14.9133 87.9139 14.7201C88.5257 14.5269 89.6729 14.411 90.3994 14.5269ZM88.1816 18.6995C87.5315 19.3177 87.3021 19.9359 87.3403 21.2495C87.3403 22.2154 87.5697 23.2585 87.8374 23.6062C88.0668 23.954 88.6787 24.4176 89.1375 24.688C89.6346 24.9199 90.3612 25.113 90.82 25.113C91.2407 25.113 92.0819 24.6108 92.732 23.954C93.5732 23.0653 93.8409 22.4472 93.8409 21.2495C93.8409 20.2063 93.5732 19.395 92.9614 18.7768C92.5025 18.2359 91.6995 17.7337 91.1642 17.6178C90.6288 17.5018 89.9405 17.5405 89.6346 17.6564C89.3287 17.7723 88.6787 18.2359 88.1816 18.6995ZM134.183 14.5656C135.024 14.6815 136.209 15.0678 136.86 15.4155C137.471 15.8019 138.389 16.7678 138.848 17.6178C139.345 18.5064 139.727 19.7813 139.727 22.4085H134.948C132.309 22.4085 130.168 22.5631 130.13 22.7176C130.13 22.8722 130.474 23.4903 130.894 24.0699C131.506 24.8812 132.003 25.113 133.112 25.113C134.081 25.1388 134.82 24.8812 135.33 24.3403C135.865 23.7994 136.554 23.5676 137.701 23.5676C138.619 23.5676 139.345 23.7222 139.345 23.8767C139.345 24.0312 139.001 24.7267 138.58 25.4221C138.121 26.1948 137.089 26.9675 135.98 27.4698C134.603 28.1266 133.8 28.2425 132.462 28.0493C131.506 27.8948 130.206 27.4698 129.594 27.0834C128.944 26.6971 128.065 25.6153 127.568 24.688C127.109 23.7222 126.726 22.2926 126.726 21.3654C126.726 20.4381 126.956 19.1632 127.262 18.4677C127.529 17.7723 128.256 16.7291 128.868 16.1496C129.479 15.6087 130.588 14.9519 131.315 14.7587C132.041 14.5269 133.342 14.4496 134.183 14.5656ZM130.168 19.7041C130.168 19.9359 131.353 20.0904 133.227 20.0904C134.986 20.0904 136.286 19.9359 136.286 19.7041C136.286 19.5109 135.865 18.8927 135.33 18.3518C134.718 17.7337 133.915 17.3859 133.189 17.3859C132.462 17.3859 131.697 17.7337 131.124 18.3518C130.627 18.8541 130.168 19.4723 130.168 19.7041ZM108.372 14.6815H111.813V27.8175H108.372V14.6815ZM116.899 14.8746L118.39 19.5109C119.231 22.0608 120.034 23.9926 120.187 23.7608C120.379 23.5676 121.143 21.4427 123.285 14.6815H125.006C125.961 14.6815 126.726 14.836 126.726 14.9905C126.688 15.1451 126.038 17.0769 125.197 19.3177C124.381 21.5586 123.361 24.3918 122.138 27.8175H117.931L117.128 25.6153C116.669 24.379 115.675 21.5586 114.834 19.3177C114.031 17.0769 113.343 15.1451 113.381 14.9519C113.381 14.7974 114.184 14.6815 116.899 14.8746ZM158.082 14.6815H161.524L161.485 18.8541C161.485 22.4085 161.6 23.1426 162.25 24.0699C162.785 24.7653 163.397 25.113 164.086 25.1517C164.659 25.1517 165.577 24.8039 166.112 24.379C167.03 23.6835 167.068 23.4903 167.106 14.6815H170.701V27.8175H168.98C167.948 27.8175 167.221 27.6243 167.145 27.3539C167.068 27.0448 166.571 27.0834 165.347 27.5857C164.353 27.972 163.13 28.1652 162.48 28.0493C161.829 27.9334 160.835 27.4698 160.223 26.9675C159.573 26.4653 158.847 25.538 158.579 24.8426C158.273 24.0312 158.082 21.9063 158.082 19.1245V14.6815Z" fill="white"/>
<path d="M12.2391 15.6473C13.0804 15.4542 13.1186 15.261 13.1186 12.1702V8.88614H16.9425V11.5906C16.9425 13.9087 17.0572 14.2951 17.6308 14.2951C17.9749 14.2951 18.6632 14.3724 19.1604 14.4883C19.9634 14.6815 20.0016 14.6042 20.0016 8.88614H23.8255V11.7838C23.8255 13.3678 23.9784 14.6815 24.1314 14.6815C24.2844 14.6815 24.5903 14.4883 24.8197 14.2951C25.0491 14.0118 25.5207 14.3981 26.2345 15.4542C26.8081 16.3041 27.1905 17.1155 27.114 17.27C27.0375 17.4632 26.2728 17.9268 23.7872 19.1245L23.8255 23.954H20.0016V21.2495C20.0016 18.7768 19.9251 18.545 19.1604 18.3518C18.6632 18.2359 17.9749 18.1586 17.6308 18.1586C17.019 18.1586 16.9425 18.6609 16.9425 28.2039L13.3098 28.0107L13.2333 23.8381C13.1569 20.7472 13.0039 19.7427 12.6598 19.82C12.3921 19.8972 11.6655 19.2791 11.0155 18.4677C9.86832 16.9996 9.86832 16.9609 10.6331 16.42C11.0537 16.111 11.7803 15.7632 12.2391 15.6473Z" fill="#071336"/>
</svg>
