<svg width="33" height="32" viewBox="0 0 33 32" fill="none" xmlns="http://www.w3.org/2000/svg">
<path d="M16.25 20C18.4591 20 20.25 18.2091 20.25 16C20.25 13.7909 18.4591 12 16.25 12C14.0409 12 12.25 13.7909 12.25 16C12.25 18.2091 14.0409 20 16.25 20Z" fill="#0059FF"/>
<path d="M21.75 3.5H10.75C8.89413 3.5021 7.11487 4.24027 5.80257 5.55257C4.49027 6.86487 3.7521 8.64413 3.75 10.5V21.5C3.7521 23.3559 4.49027 25.1351 5.80257 26.4474C7.11487 27.7597 8.89413 28.4979 10.75 28.5H21.75C23.6059 28.4979 25.3851 27.7597 26.6974 26.4474C28.0097 25.1351 28.7479 23.3559 28.75 21.5V10.5C28.7479 8.64413 28.0097 6.86487 26.6974 5.55257C25.3851 4.24027 23.6059 3.5021 21.75 3.5ZM16.25 22C15.0633 22 13.9033 21.6481 12.9166 20.9888C11.9299 20.3295 11.1608 19.3925 10.7067 18.2961C10.2526 17.1997 10.1338 15.9933 10.3653 14.8295C10.5968 13.6656 11.1682 12.5965 12.0074 11.7574C12.8465 10.9182 13.9156 10.3468 15.0795 10.1153C16.2433 9.88378 17.4497 10.0026 18.5461 10.4567C19.6425 10.9108 20.5795 11.6799 21.2388 12.6666C21.8981 13.6533 22.25 14.8133 22.25 16C22.2482 17.5907 21.6155 19.1158 20.4907 20.2407C19.3658 21.3655 17.8407 21.9982 16.25 22ZM22.75 11C22.4533 11 22.1633 10.912 21.9166 10.7472C21.67 10.5824 21.4777 10.3481 21.3642 10.074C21.2507 9.79994 21.2209 9.49834 21.2788 9.20736C21.3367 8.91639 21.4796 8.64912 21.6893 8.43934C21.8991 8.22956 22.1664 8.0867 22.4574 8.02882C22.7483 7.97094 23.0499 8.00065 23.324 8.11418C23.5981 8.22771 23.8324 8.41997 23.9972 8.66665C24.162 8.91332 24.25 9.20333 24.25 9.5C24.25 9.89782 24.092 10.2794 23.8107 10.5607C23.5294 10.842 23.1478 11 22.75 11Z" fill="#0059FF"/>
</svg>
