<svg width="33" height="32" viewBox="0 0 33 32" fill="none" xmlns="http://www.w3.org/2000/svg">
<path d="M26.5 4H6.5C5.96975 4.00061 5.4614 4.21151 5.08646 4.58646C4.71151 4.9614 4.50061 5.46975 4.5 6V26C4.50061 26.5302 4.71151 27.0386 5.08646 27.4135C5.4614 27.7885 5.96975 27.9994 6.5 28H26.5C27.0302 27.9994 27.5386 27.7885 27.9135 27.4135C28.2885 27.0386 28.4994 26.5302 28.5 26V6C28.4994 5.46975 28.2885 4.9614 27.9135 4.58646C27.5386 4.21151 27.0302 4.00061 26.5 4ZM12.5 22.0001C12.5 22.2653 12.3946 22.5197 12.2071 22.7072C12.0196 22.8948 11.7652 23.0001 11.5 23.0001C11.2348 23.0001 10.9804 22.8948 10.7929 22.7072C10.6054 22.5197 10.5 22.2653 10.5 22.0001V14.0001C10.5 13.7349 10.6054 13.4805 10.7929 13.293C10.9804 13.1055 11.2348 13.0001 11.5 13.0001C11.7652 13.0001 12.0196 13.1055 12.2071 13.293C12.3946 13.4805 12.5 13.7349 12.5 14.0001V22.0001ZM11.5 11.5001C11.2033 11.5001 10.9133 11.4121 10.6666 11.2473C10.42 11.0825 10.2277 10.8482 10.1142 10.5741C10.0006 10.3001 9.97094 9.99845 10.0288 9.70748C10.0867 9.41651 10.2296 9.14924 10.4393 8.93946C10.6491 8.72968 10.9164 8.58682 11.2074 8.52894C11.4983 8.47106 11.7999 8.50077 12.074 8.6143C12.3481 8.72783 12.5824 8.92009 12.7472 9.16676C12.912 9.41344 13 9.70345 13 10.0001C13 10.3979 12.842 10.7795 12.5607 11.0608C12.2794 11.3421 11.8978 11.5001 11.5 11.5001ZM23.5 22.0001C23.5 22.2653 23.3946 22.5197 23.2071 22.7072C23.0196 22.8948 22.7652 23.0001 22.5 23.0001C22.2348 23.0001 21.9804 22.8948 21.7929 22.7072C21.6054 22.5197 21.5 22.2653 21.5 22.0001V17.5001C21.5 16.8371 21.2366 16.2012 20.7678 15.7324C20.2989 15.2635 19.663 15.0001 19 15.0001C18.337 15.0001 17.7011 15.2635 17.2322 15.7324C16.7634 16.2012 16.5 16.8371 16.5 17.5001V22.0001C16.5 22.2653 16.3946 22.5197 16.2071 22.7072C16.0196 22.8948 15.7652 23.0001 15.5 23.0001C15.2348 23.0001 14.9804 22.8948 14.7929 22.7072C14.6054 22.5197 14.5 22.2653 14.5 22.0001V14.0001C14.4999 13.7543 14.5904 13.5171 14.7542 13.3338C14.918 13.1504 15.1435 13.0339 15.3878 13.0064C15.6321 12.9789 15.8779 13.0423 16.0784 13.1847C16.2788 13.327 16.4198 13.5381 16.4744 13.7778C17.1506 13.3182 17.9394 13.0517 18.7559 13.0069C19.5723 12.9621 20.3855 13.1407 21.108 13.5235C21.8305 13.9063 22.435 14.4788 22.8565 15.1795C23.2779 15.8801 23.5004 16.6825 23.5 17.5001V22.0001Z" fill="#0059FF"/>
</svg>
