<svg width="38" height="39" viewBox="0 0 38 39" fill="none" xmlns="http://www.w3.org/2000/svg">
<path fill-rule="evenodd" clip-rule="evenodd" d="M19 1C8.78273 1 0.5 9.28273 0.5 19.5C0.5 29.7173 8.78273 38 19 38C29.2173 38 37.5 29.7173 37.5 19.5C37.5 9.28273 29.2173 1 19 1ZM9.38125 16.3225H13.5738V28.9192H9.38125V16.3225ZM13.8499 12.4258C13.8227 11.1907 12.9394 10.25 11.5052 10.25C10.071 10.25 9.13333 11.1907 9.13333 12.4258C9.13333 13.6353 10.0433 14.6032 11.4508 14.6032H11.4776C12.9394 14.6032 13.8499 13.6353 13.8499 12.4258ZM23.8664 16.0267C26.6252 16.0267 28.6935 17.8275 28.6935 21.6967L28.6934 28.9192H24.501V22.18C24.501 20.4872 23.8943 19.3321 22.3766 19.3321C21.2184 19.3321 20.5285 20.1108 20.2255 20.8629C20.1146 21.1325 20.0874 21.508 20.0874 21.8845V28.9196H15.8944C15.8944 28.9196 15.9496 17.5049 15.8944 16.3228H20.0874V18.1071C20.6438 17.2494 21.6404 16.0267 23.8664 16.0267Z" fill="white"/>
<path d="M13.5738 16.3225H14.0738V15.8225H13.5738V16.3225ZM9.38125 16.3225V15.8225H8.88125V16.3225H9.38125ZM13.5738 28.9192V29.4192H14.0738V28.9192H13.5738ZM9.38125 28.9192H8.88125V29.4192H9.38125V28.9192ZM13.8499 12.4258H14.35L14.3498 12.4148L13.8499 12.4258ZM28.6935 21.6967L29.1935 21.6967V21.6967H28.6935ZM28.6934 28.9192V29.4192H29.1933L29.1934 28.9193L28.6934 28.9192ZM24.501 28.9192H24.001V29.4192H24.501V28.9192ZM20.2255 20.8629L20.6879 21.0531L20.6892 21.0498L20.2255 20.8629ZM20.0874 28.9196V29.4196H20.5874V28.9196H20.0874ZM15.8944 28.9196L15.3944 28.9172L15.392 29.4196H15.8944V28.9196ZM15.8944 16.3228V15.8228H15.3705L15.3949 16.3462L15.8944 16.3228ZM20.0874 16.3228H20.5874V15.8228H20.0874V16.3228ZM20.0874 18.1071H19.5874V19.7965L20.5069 18.3792L20.0874 18.1071ZM1 19.5C1 9.55887 9.05887 1.5 19 1.5V0.5C8.50659 0.5 0 9.00659 0 19.5H1ZM19 37.5C9.05887 37.5 1 29.4411 1 19.5H0C0 29.9934 8.50659 38.5 19 38.5V37.5ZM37 19.5C37 29.4411 28.9411 37.5 19 37.5V38.5C29.4934 38.5 38 29.9934 38 19.5H37ZM19 1.5C28.9411 1.5 37 9.55887 37 19.5H38C38 9.00659 29.4934 0.5 19 0.5V1.5ZM13.5738 15.8225H9.38125V16.8225H13.5738V15.8225ZM14.0738 28.9192V16.3225H13.0738V28.9192H14.0738ZM9.38125 29.4192H13.5738V28.4192H9.38125V29.4192ZM8.88125 16.3225V28.9192H9.88125V16.3225H8.88125ZM11.5052 10.75C12.1099 10.75 12.5592 10.9461 12.8579 11.2345C13.1574 11.5237 13.339 11.9379 13.35 12.4368L14.3498 12.4148C14.3335 11.6787 14.0599 11.005 13.5525 10.515C13.0441 10.0242 12.3348 9.75 11.5052 9.75V10.75ZM9.63333 12.4258C9.63333 11.9395 9.81558 11.5294 10.1242 11.2388C10.4338 10.9472 10.8991 10.75 11.5052 10.75V9.75C10.6771 9.75 9.95641 10.0232 9.43865 10.5107C8.91991 10.9992 8.63333 11.6771 8.63333 12.4258H9.63333ZM11.4508 14.1032C10.3072 14.1032 9.63333 13.3471 9.63333 12.4258H8.63333C8.63333 13.9236 9.77937 15.1032 11.4508 15.1032V14.1032ZM11.4776 14.1032H11.4508V15.1032H11.4776V14.1032ZM13.3499 12.4258C13.3499 12.9017 13.1727 13.3132 12.866 13.607C12.5597 13.9005 12.0956 14.1032 11.4776 14.1032V15.1032C12.3215 15.1032 13.0435 14.8219 13.5578 14.3291C14.0719 13.8366 14.3499 13.1594 14.3499 12.4258H13.3499ZM29.1935 21.6967C29.1935 19.6759 28.6526 18.1232 27.6819 17.0716C26.7077 16.0161 25.357 15.5267 23.8664 15.5267V16.5267C25.1346 16.5267 26.1975 16.9377 26.9471 17.7499C27.7003 18.566 28.1935 19.8483 28.1935 21.6967H29.1935ZM29.1934 28.9193L29.1935 21.6967L28.1935 21.6966L28.1934 28.9192L29.1934 28.9193ZM24.501 29.4192H28.6934V28.4192H24.501V29.4192ZM24.001 22.18V28.9192H25.001V22.18H24.001ZM22.3766 19.8321C22.9884 19.8321 23.3565 20.0536 23.5949 20.4031C23.8551 20.7843 24.001 21.3792 24.001 22.18H25.001C25.001 21.288 24.8436 20.459 24.421 19.8395C23.9767 19.1882 23.2826 18.8321 22.3766 18.8321V19.8321ZM20.6892 21.0498C20.9444 20.4165 21.4889 19.8321 22.3766 19.8321V18.8321C20.9478 18.8321 20.1126 19.8052 19.7617 20.6761L20.6892 21.0498ZM20.5874 21.8845C20.5874 21.5105 20.6179 21.2233 20.6879 21.0531L19.763 20.6728C19.6113 21.0417 19.5874 21.5056 19.5874 21.8845H20.5874ZM20.5874 28.9196V21.8845H19.5874V28.9196H20.5874ZM15.8944 29.4196H20.0874V28.4196H15.8944V29.4196ZM15.3949 16.3462C15.4218 16.9211 15.422 20.0511 15.4151 23.0633C15.4117 24.5637 15.4065 26.0271 15.4022 27.1156C15.4 27.6598 15.3981 28.1102 15.3967 28.4246C15.396 28.5817 15.3954 28.7049 15.395 28.7888C15.3948 28.8307 15.3947 28.8628 15.3946 28.8844C15.3945 28.8952 15.3945 28.9034 15.3944 28.9089C15.3944 28.9116 15.3944 28.9137 15.3944 28.9151C15.3944 28.9158 15.3944 28.9163 15.3944 28.9166C15.3944 28.9168 15.3944 28.9169 15.3944 28.917C15.3944 28.9171 15.3944 28.9172 15.8944 28.9196C16.3944 28.922 16.3944 28.922 16.3944 28.9219C16.3944 28.9218 16.3944 28.9216 16.3944 28.9215C16.3944 28.9211 16.3944 28.9206 16.3944 28.9199C16.3944 28.9185 16.3944 28.9164 16.3944 28.9137C16.3944 28.9082 16.3945 28.9 16.3945 28.8892C16.3946 28.8675 16.3948 28.8354 16.395 28.7934C16.3954 28.7095 16.3959 28.5863 16.3967 28.429C16.3981 28.1145 16.4 27.6639 16.4022 27.1195C16.4065 26.0308 16.4117 24.5667 16.4151 23.0656C16.422 20.0749 16.4222 16.9066 16.3938 16.2995L15.3949 16.3462ZM20.0874 15.8228H15.8944V16.8228H20.0874V15.8228ZM20.5874 18.1071V16.3228H19.5874V18.1071H20.5874ZM23.8664 15.5267C22.6542 15.5267 21.7489 15.862 21.0664 16.334C20.3913 16.801 19.9607 17.3836 19.6679 17.8349L20.5069 18.3792C20.7705 17.9728 21.1165 17.5153 21.6352 17.1565C22.1467 16.8028 22.8526 16.5267 23.8664 16.5267V15.5267Z" fill="#051238" fill-opacity="0.48"/>
</svg>
