<svg width="15" height="14" viewBox="0 0 15 14" fill="none" xmlns="http://www.w3.org/2000/svg">
<mask id="mask0_11796_685" style="mask-type:luminance" maskUnits="userSpaceOnUse" x="8" y="0" width="7" height="7">
<path fill-rule="evenodd" clip-rule="evenodd" d="M8.56934 0.333557H14.262V6.0221H8.56934V0.333557Z" fill="white"/>
</mask>
<g mask="url(#mask0_11796_685)">
<path fill-rule="evenodd" clip-rule="evenodd" d="M13.7618 6.0221C13.5105 6.0221 13.2945 5.83343 13.2658 5.5781C13.0131 3.32743 11.2651 1.58077 9.0138 1.33077C8.7398 1.3001 8.5418 1.05343 8.57247 0.778766C8.60247 0.504766 8.84713 0.302766 9.12447 0.337433C11.8431 0.639433 13.9545 2.7481 14.2591 5.4661C14.2898 5.74077 14.0925 5.9881 13.8185 6.01877C13.7998 6.02077 13.7805 6.0221 13.7618 6.0221Z" fill="#071336"/>
</g>
<path fill-rule="evenodd" clip-rule="evenodd" d="M11.4015 6.02927C11.1668 6.02927 10.9581 5.86394 10.9115 5.62527C10.7195 4.63861 9.9588 3.87794 8.97347 3.68661C8.70213 3.63394 8.52547 3.37194 8.57813 3.10061C8.6308 2.82927 8.89747 2.65194 9.16413 2.70527C10.5515 2.97461 11.6228 4.04527 11.8928 5.43327C11.9455 5.70527 11.7688 5.96727 11.4981 6.01994C11.4655 6.02594 11.4335 6.02927 11.4015 6.02927Z" fill="#071336"/>
<mask id="mask1_11796_685" style="mask-type:luminance" maskUnits="userSpaceOnUse" x="0" y="0" width="15" height="15">
<path fill-rule="evenodd" clip-rule="evenodd" d="M0.333496 0.333282H14.0003V14.0003H0.333496V0.333282Z" fill="white"/>
</mask>
<g mask="url(#mask1_11796_685)">
<path fill-rule="evenodd" clip-rule="evenodd" d="M1.90623 2.37428C1.90756 2.37428 1.87423 2.40895 1.83223 2.45028C1.6709 2.60695 1.3369 2.93295 1.33356 3.61495C1.32823 4.56895 1.95556 6.34028 4.97623 9.36028C7.98223 12.3656 9.7509 13.0003 10.7076 13.0003H10.7216C11.4036 12.9963 11.7289 12.6623 11.8856 12.5016C11.9329 12.4529 11.9716 12.4163 11.9989 12.3943C12.6636 11.7256 13.0036 11.2289 13.0002 10.9096C12.9962 10.5843 12.5916 10.2003 12.0322 9.66762C11.8542 9.49895 11.6609 9.31428 11.4569 9.11028C10.9276 8.58295 10.6669 8.67295 10.0902 8.87562C9.29356 9.15495 8.20223 9.53762 6.50156 7.83562C4.80023 6.13495 5.18156 5.04362 5.45956 4.24628C5.6609 3.67028 5.7529 3.40828 5.22423 2.87895C5.01756 2.67228 4.83156 2.47628 4.66023 2.29628C4.1309 1.74028 3.7489 1.33828 3.42556 1.33362H3.42023C3.1009 1.33362 2.6049 1.67495 1.9029 2.37695C1.9049 2.37495 1.90556 2.37428 1.90623 2.37428ZM10.7076 14.0003C9.04622 14.0003 6.88022 12.6776 4.26955 10.0676C1.64822 7.44695 0.323552 5.27428 0.333552 3.60961C0.339552 2.50961 0.916219 1.94628 1.13289 1.73495C1.14422 1.72095 1.18289 1.68295 1.19622 1.66961C2.15289 0.712945 2.81022 0.319612 3.43822 0.333612C4.18289 0.343612 4.71355 0.901612 5.38489 1.60761C5.55089 1.78161 5.73022 1.97161 5.93088 2.17161C6.90355 3.14495 6.62689 3.93895 6.40355 4.57628C6.16089 5.27161 5.95089 5.87161 7.20822 7.12895C8.46555 8.38628 9.06489 8.17628 9.75955 7.93161C10.3976 7.70895 11.1896 7.43028 12.1642 8.40361C12.3622 8.60161 12.5489 8.77894 12.7222 8.94361C13.4309 9.61828 13.9909 10.1509 14.0002 10.8976C14.0076 11.5336 13.6209 12.1829 12.6662 13.1376L12.2436 12.8509L12.6016 13.1996C12.3902 13.4163 11.8282 13.9936 10.7276 14.0003H10.7076Z" fill="#071336"/>
</g>
</svg>
