<svg width="43" height="48" viewBox="0 0 43 48" fill="none" xmlns="http://www.w3.org/2000/svg">
<rect x="0.5" width="41.8541" height="47.7298" rx="9" fill="#A3E0FF"/>
<path fill-rule="evenodd" clip-rule="evenodd" d="M9.91403 9.45033C10.1322 7.45988 11.6159 5.96619 13.3749 5.96619H29.4791C31.2381 5.96619 32.7218 7.45988 32.94 9.45033L33.212 11.9324H34.378C36.8982 11.9324 38.7884 14.5618 38.2941 17.38L37.9434 19.3796C37.4007 22.4741 35.3456 24.8558 32.7613 25.6055C31.0051 29.8514 27.4573 32.9936 23.1709 33.6719V37.7861H28.4027C29.3658 37.7861 30.1466 38.6765 30.1466 39.7748C30.1466 40.8732 29.3658 41.7636 28.4027 41.7636H14.4513C13.4882 41.7636 12.7074 40.8732 12.7074 39.7748C12.7074 38.6765 13.4882 37.7861 14.4513 37.7861H19.6831V33.6719C15.3967 32.9936 11.8489 29.8514 10.0927 25.6055C7.50844 24.8558 5.45327 22.4741 4.91056 19.3796L4.55987 17.38C4.06561 14.5618 5.95581 11.9324 8.47603 11.9324H9.64197L9.91403 9.45033ZM21.427 29.8311C26.8601 29.8311 31.0637 24.4008 30.3898 18.2528L29.4791 9.94367H13.3749L12.4642 18.2528C11.7903 24.4008 15.9939 29.8311 21.427 29.8311ZM33.8507 17.7595L33.648 15.9099H34.378C34.6972 15.9099 34.9366 16.243 34.874 16.5999L34.5233 18.5995C34.4228 19.1728 34.2197 19.6978 33.9384 20.1516C33.9671 19.3669 33.9393 18.5677 33.8507 17.7595ZM9.20599 15.9099H8.47603C8.1568 15.9099 7.91737 16.243 7.97998 16.5999L8.33067 18.5995C8.43121 19.1728 8.63433 19.6978 8.9156 20.1516C8.88689 19.3669 8.91467 18.5677 9.00325 17.7595L9.20599 15.9099Z" fill="#0C4298"/>
</svg>
