<svg width="54" height="53" viewBox="0 0 54 53" fill="none" xmlns="http://www.w3.org/2000/svg">
<rect x="0.5" width="53" height="53" rx="9" fill="#A3E0FF"/>
<path d="M26.9998 37.5416C29.4391 37.5416 31.4165 35.5642 31.4165 33.125C31.4165 30.6857 29.4391 28.7083 26.9998 28.7083C24.5606 28.7083 22.5832 30.6857 22.5832 33.125C22.5832 35.5642 24.5606 37.5416 26.9998 37.5416Z" fill="#0C4298"/>
<path fill-rule="evenodd" clip-rule="evenodd" d="M8.3598 9.37259C7.09791 7.16428 8.69244 4.41663 11.2359 4.41663H21.3016C22.8866 4.41663 24.35 5.26589 25.1364 6.64201L26.9999 9.90316L28.8634 6.64201C29.6497 5.26589 31.1132 4.41663 32.6981 4.41663H42.7639C45.3073 4.41663 46.9019 7.16428 45.64 9.37259L38.1721 22.4413C40.8272 25.217 42.4582 28.9805 42.4582 33.125C42.4582 41.6624 35.5372 48.5833 26.9998 48.5833C18.4624 48.5833 11.5415 41.6624 11.5415 33.125C11.5415 28.9805 13.1725 25.217 15.8276 22.4412L8.3598 9.37259ZM31.8866 18.455C32.8559 18.7777 33.7826 19.1938 34.6559 19.6926L40.8612 8.83329H32.6981L29.5433 14.3542L31.8866 18.455ZM19.3439 19.6926C21.4264 18.5031 23.8123 17.7839 26.3568 17.6798L21.3016 8.83329H13.1385L19.3439 19.6926ZM26.9998 22.0833C20.9017 22.0833 15.9582 27.0268 15.9582 33.125C15.9582 39.2231 20.9017 44.1666 26.9998 44.1666C33.098 44.1666 38.0415 39.2231 38.0415 33.125C38.0415 27.0268 33.098 22.0833 26.9998 22.0833Z" fill="#0C4298"/>
</svg>
