<svg width="33" height="32" viewBox="0 0 33 32" fill="none" xmlns="http://www.w3.org/2000/svg">
<path d="M22.264 11.3583C24.1451 12.7047 26.4486 13.497 28.9367 13.497V9.72189C27.5479 9.42559 26.3184 8.69864 25.394 7.68751C23.8116 6.69851 22.6716 5.06692 22.3373 3.15725H18.8492V22.3127C18.8413 24.5458 17.0319 26.354 14.8006 26.354C13.4858 26.354 12.3177 25.7262 11.5779 24.7537C10.2568 24.0859 9.3509 22.7149 9.3509 21.1315C9.3509 18.8922 11.1633 17.0766 13.3993 17.0766C13.8277 17.0766 14.2407 17.1434 14.628 17.2665V13.4502C9.82611 13.5496 5.96421 17.4795 5.96421 22.3128C5.96421 24.7255 6.92591 26.9127 8.48676 28.5109C9.89488 29.4579 11.59 30.0103 13.4137 30.0103C18.3016 30.0103 22.2641 26.0414 22.2641 21.1455V11.3583H22.264Z" fill="#0059FF"/>
<path d="M28.9367 9.72189L28.9367 8.70114C27.6843 8.70305 26.4565 8.35175 25.394 7.68741C26.3346 8.71888 27.5732 9.43009 28.9367 9.72189ZM22.3373 3.15725C22.3054 2.97473 22.2809 2.79102 22.264 2.6066V1.98975H17.4477V21.1454C17.4401 23.3782 15.6308 25.1864 13.3993 25.1864C12.7442 25.1864 12.1257 25.0306 11.5779 24.7538C12.3177 25.7262 13.4858 26.3539 14.8006 26.3539C17.0317 26.3539 18.8414 24.5459 18.8492 22.3128L18.8492 3.15725H22.3373ZM14.6282 13.4502V12.3635C14.2258 12.3084 13.8201 12.2808 13.4138 12.281C8.52555 12.2809 4.56299 16.2498 4.56299 21.1454C4.56299 24.2146 6.12034 26.9196 8.48686 28.5107C6.92601 26.9126 5.96431 24.7253 5.96431 22.3127C5.96431 17.4795 9.82611 13.5496 14.6282 13.4502Z" fill="#0059FF"/>
</svg>
